<?xml version="1.0" standalone="no"?>
<!DOCTYPE svg PUBLIC "-//W3C//DTD SVG 1.1//EN" "http://www.w3.org/Graphics/SVG/1.1/DTD/svg11.dtd" >
<svg xmlns="http://www.w3.org/2000/svg">
<metadata>Generated by IcoMoon</metadata>
<defs>
<font id="icomoon" horiz-adv-x="512">
<font-face units-per-em="512" ascent="480" descent="-32" />
<missing-glyph horiz-adv-x="512" />
<glyph unicode="&#x20;" d="" horiz-adv-x="256" />
<glyph unicode="&#xe600;" d="M405.504 252.672l-77.824 120.832c-2.048 2.048-6.144 4.096-8.192 4.096-4.096 0-114.688 0-208.896-61.44-4.096-2.048-8.192-6.144-8.192-14.336v-157.696c0-4.096 4.096-8.192 8.192-10.24l288.768-69.632c2.048 0 4.096 0 6.144 2.048s4.096 4.096 4.096 8.192v159.744c0 12.288-4.096 18.432-4.096 18.432zM313.344 357.12l63.488-98.304-235.52 51.2c73.728 38.912 151.552 45.056 172.032 47.104zM389.12 86.784l-266.24 65.536v59.392l266.24-63.488v-61.44zM389.12 168.704l-266.24 63.488v61.44l266.24-59.392v-65.536z" />
<glyph unicode="&#xe601;" d="M446.464 166.656c-18.432 83.968-92.16 145.408-178.176 151.552h-24.576c-86.016-6.144-157.696-67.584-178.176-151.552-2.048-10.24 0-18.432 6.144-26.624 8.192-10.24 20.48-14.336 32.768-10.24 30.72 10.24 83.968 22.528 151.552 22.528s118.784-12.288 151.552-22.528c2.048 0 6.144-2.048 10.24-2.048 10.24 0 18.432 4.096 24.576 12.288 4.096 8.192 6.144 16.384 4.096 26.624zM98.304 150.272c-4.096-2.048-8.192 0-10.24 4.096-2.048 2.048-2.048 4.096-2.048 8.192 10.24 45.056 36.864 81.92 73.728 106.496 4.096-16.384 10.24-45.056 22.528-100.352-34.816-6.144-63.488-12.288-83.968-18.432zM256 172.8c-18.432 0-36.864 0-53.248-2.048-8.192 38.912-22.528 94.208-24.576 110.592 22.528 12.288 49.152 18.432 75.776 18.432h4.096c26.624 0 51.2-6.144 73.728-18.432-2.048-14.336-16.384-71.68-24.576-110.592-16.384 0-32.768 2.048-51.2 2.048zM423.936 152.32c-2.048-2.048-4.096-4.096-8.192-4.096 0 0-2.048 0-4.096 0-20.48 6.144-49.152 14.336-86.016 18.432 14.336 57.344 20.48 88.064 24.576 102.4 36.864-24.576 65.536-61.44 75.776-108.544 2.048-2.048 0-6.144-2.048-8.192z" />
<glyph unicode="&#xe602;" d="M456.704 166.656c-2.048 4.096-6.144 6.144-10.24 6.144h-14.336c-2.048 28.672-20.48 106.496-124.928 126.976v47.104c0 6.144-4.096 10.24-10.24 10.24h-81.92c-6.144 0-10.24-4.096-10.24-10.24v-47.104c-104.448-20.48-122.88-98.304-126.976-126.976h-14.336c-4.096 0-8.192-2.048-10.24-6.144s0-8.192 4.096-12.288l53.248-40.96c2.048-2.048 4.096-2.048 6.144-2.048h276.48c2.048 0 4.096 0 6.144 2.048l53.248 40.96c4.096 2.048 6.144 8.192 4.096 12.288zM225.28 336.64h61.44v-34.816c-10.24 0-20.48 2.048-30.72 2.048s-20.48 0-30.72-2.048v34.816zM256 283.392c131.072 0 153.6-81.92 157.696-110.592h-315.392c4.096 28.672 26.624 110.592 157.696 110.592zM391.168 131.84h-270.336l-26.624 20.48h323.584l-26.624-20.48z" />
<glyph unicode="&#xe603;" d="M368.64 377.6c0 12.288-8.192 20.48-20.48 20.48h-184.32c-12.288 0-20.48-8.192-20.48-20.48v-22.528c0-6.144 2.048-10.24 6.144-14.336-4.096-4.096-6.144-10.24-6.144-16.384v-212.992c0-53.248 36.864-61.44 59.392-61.44h104.448c45.056 0 61.44 30.72 61.44 61.44v212.992c0 6.144-2.048 12.288-6.144 18.432 4.096 4.096 6.144 8.192 6.144 12.288v22.528zM348.16 111.36c0-18.432-6.144-40.96-40.96-40.96h-104.448c-34.816 0-38.912 22.528-38.912 40.96v212.992c0 4.096 2.048 8.192 6.144 10.24h172.032c4.096-2.048 6.144-6.144 6.144-10.24v-212.992zM348.16 357.12h-184.32v20.48h184.32v-20.48zM317.44 295.68h-122.88c-6.144 0-10.24-4.096-10.24-10.24v-163.84c0-6.144 4.096-10.24 10.24-10.24h122.88c6.144 0 10.24 4.096 10.24 10.24v163.84c0 6.144-4.096 10.24-10.24 10.24zM307.2 131.84h-102.4v143.36h102.4v-143.36z" />
<glyph unicode="&#xe604;" d="M397.312 334.592c-16.384 28.672-43.008 30.72-61.44 26.624-6.144 14.336-24.576 38.912-79.872 38.912s-73.728-24.576-79.872-38.912c-20.48 4.096-47.104 2.048-63.488-26.624-4.096-12.288-6.144-24.576-2.048-34.816 6.144-16.384 22.528-26.624 32.768-30.72 0 0 10.24-98.304 10.24-100.352-6.144-2.048-10.24-8.192-10.24-16.384v-81.92c0-10.24 10.24-20.48 20.48-20.48h184.32c10.24 0 20.48 10.24 20.48 20.48v81.92c0 8.192-4.096 14.336-10.24 18.432 0 0 10.24 98.304 10.24 98.304 10.24 4.096 26.624 14.336 32.768 30.72 2.048 8.192 4.096 20.48-4.096 34.816zM348.16 70.4h-184.32v81.92h184.32v-81.92zM382.976 307.968c-4.096-10.24-20.48-18.432-26.624-20.48-4.096-2.048-8.192-6.144-8.192-10.24l-10.24-104.448c0 0 0 0 0 0h-51.2v40.96c0 6.144-4.096 10.24-10.24 10.24s-10.24-4.096-10.24-10.24v-40.96h-20.48v40.96c0 6.144-4.096 10.24-10.24 10.24s-10.24-4.096-10.24-10.24v-40.96h-51.2c0 0 0 0 0 0l-10.24 104.448c0 4.096-4.096 8.192-6.144 8.192-6.144 4.096-22.528 10.24-26.624 22.528-2.048 4.096-2.048 10.24 0 16.384 14.336 26.624 45.056 14.336 49.152 12.288 2.048-2.048 6.144 0 10.24 0s4.096 4.096 4.096 8.192c0 2.048 2.048 32.768 61.44 32.768s61.44-30.72 61.44-30.72c0-4.096 2.048-6.144 4.096-8.192 4.096-2.048 6.144-2.048 10.24 0s32.768 12.288 47.104-14.336c4.096-6.144 6.144-12.288 4.096-16.384z" />
<glyph unicode="&#xe605;" d="M471.040 295.68v71.68c0 6.144-4.096 10.24-10.24 10.24h-122.88c-6.144 0-10.24-4.096-10.24-10.24v-71.68c0-34.816 26.624-65.536 61.44-69.632v-73.728c-14.336 14.336-32.768 22.528-51.2 22.528-24.576 0-49.152-12.288-61.44-32.768-18.432 34.816-53.248 57.344-92.16 57.344-49.152 0-92.16-34.816-102.4-81.92 0-2.048 0-4.096-2.048-4.096h-18.432c-6.144 0-10.24-4.096-10.24-10.24s4.096-12.288 10.24-12.288h389.12c6.144 0 10.24 4.096 10.24 10.24s-4.096 10.24-10.24 10.24h-40.96v114.688c34.816 4.096 61.44 32.768 61.44 69.632zM100.352 111.36c0 0 0 0 0 0 8.192 38.912 43.008 67.584 81.92 67.584s73.728-28.672 81.92-65.536c0 0 0 0 0 0s0 0 0 0h-163.84zM389.12 111.36h-104.448c0 0 0 0 0 0 6.144 24.576 26.624 40.96 51.2 40.96 26.624 2.048 47.104-16.384 53.248-40.96v0zM348.16 357.12h102.4v-20.48h-102.4v20.48zM399.36 244.48c-28.672 0-51.2 22.528-51.2 51.2v20.48h102.4v-20.48c0-28.672-22.528-51.2-51.2-51.2z" />
<glyph unicode="&#xe606;" d="M430.080 371.456l-26.624 26.624c-4.096 4.096-10.24 4.096-14.336 0l-43.008-43.008-6.144 6.144c-4.096 4.096-10.24 4.096-14.336 0l-204.8-204.8c-2.048-2.048-2.048-4.096-2.048-8.192 0-2.048 2.048-6.144 2.048-8.192l6.144-6.144-45.056-43.008c-4.096-4.096-4.096-10.24 0-14.336l26.624-26.624c2.048-2.048 4.096-2.048 8.192-2.048 2.048 0 6.144 0 8.192 2.048l43.008 43.008 6.144-6.144c2.048-2.048 4.096-2.048 8.192-2.048 2.048 0 6.144 2.048 8.192 2.048l204.8 204.8c2.048 2.048 2.048 4.096 2.048 8.192s-2.048 6.144-2.048 8.192l-6.144 6.144 40.96 43.008c4.096 4.096 4.096 10.24 0 14.336zM116.736 72.448l-12.288 12.288 36.864 36.864 12.288-12.288-36.864-36.864zM180.224 109.312l-38.912 38.912 190.464 190.464 6.144-6.144c0 0 0 0 0 0l26.624-26.624c0 0 0 0 0 0l6.144-6.144-190.464-190.464zM372.736 326.4l-12.288 12.288 34.816 38.912 14.336-14.336-36.864-36.864z" />
<glyph unicode="&#xe607;" d="M238.934 377.6h34.133v68.266h10.24v34.134h-54.613v-34.134h10.24v-68.266zM259.413 343.466h-6.827c-6.827 0-81.92 0-81.92-88.746v-252.586c0 0 0-34.134 34.133-34.134h102.4c34.133 0 34.133 34.134 34.133 34.134v252.587c0 88.746-75.094 88.746-81.92 88.746z" />
<glyph unicode="&#xe608;" d="M409.6 229.701c0-129.263-68.769-234.052-153.6-234.052s-153.6 104.789-153.6 234.053c0 129.264 68.769 234.053 153.6 234.053s153.6-104.789 153.6-234.053z" />
<glyph unicode="&#xe609;" d="M433.493 162.56c-13.654 129.707-71.68 157.013-88.747 170.666-54.613 34.134-105.814 27.307-129.707 6.827-34.133 3.413-71.68 3.413-102.4-6.827 6.826 23.894 0 61.44-37.547 71.68 0 0-30.72-54.614 13.653-81.92 0 0-3.413 0-3.413-3.413-27.306-17.066-44.373-44.373-47.786-81.92-6.826-37.546 6.827-68.267 34.133-88.746 10.24-6.827 23.894-13.654 34.133-13.654 17.067-3.413 47.786-3.413 68.266 13.654 17.066 17.067 20.48 30.72 20.48 40.96 3.413 37.547-23.893 64.853-51.2 58.026-27.306-3.413-40.96-27.307-34.133-51.2 3.413-27.306 27.306-34.133 27.306-34.133s0-10.24-13.653-10.24c-13.653 0-27.306 6.827-37.546 13.654-17.067 10.24-34.133 30.72-30.72 71.68 3.413 30.72 17.067 54.613 40.96 68.267 30.72 17.067 75.094 17.067 109.226 13.654-3.413-40.96 0-187.733 174.080-221.866 51.2-10.24 98.986-51.2 98.986-51.2s-40.96 68.267-44.373 116.053z" />
<glyph unicode="&#xe60a;" d="M259.413 374.187c-119.466 0-170.667-98.987-184.32-139.947h368.64c-17.067 40.96-64.853 139.947-184.32 139.947zM259.413 73.813c119.466 0 170.667 98.986 184.32 139.947h-372.053c17.067-40.96 64.853-139.947 187.733-139.947z" />
<glyph unicode="&#xe60b;" d="M439.877 309.026c-15.565 21.265-49.698 26.522-93.832-14.166-11.094-10.24-22.562-14.166-32.051-13.961 1.399 14.029 6.007 38.059 4.438 65.161 0 1.024 0.034 1.604 0.034 1.604l-0.068 0.034c-3.959 72.090-62.395 115.234-62.395 115.234s-58.436-43.144-62.395-115.234l-0.069-0.034c0 0 0-0.58 0.034-1.604-1.57-27.136 3.038-51.132 4.438-65.161-9.455-0.205-20.923 3.721-32.051 13.961-44.135 40.687-78.234 35.43-93.832 14.165-46.797-63.829 28.365-101.137 30.139-102.024 0 0 27.136 100.796 91.648 31.71 4.54-4.881 4.847-4.096 8.67-11.503 4.335-23.62 13.824-54.375 21.401-73.899-7.27-4.335-25.907-12.663-23.825-22.733 1.946-9.523 16.008-15.633 21.641-19.353-0.512-3.038-1.093-6.075-1.809-9.079-4.506-19.49-26.555-30.208-52.019-27.887-27.887 2.56-36.864 39.526-36.625 39.219 0 0-48.504-46.387-5.427-80.827 42.599-33.997 92.331 11.537 92.774 9.762 10.991-41.711 37.308-59.461 37.308-59.461s26.317 17.784 37.274 59.461c0.478 1.775 50.21-43.759 92.774-9.762 43.111 34.406-5.427 80.827-5.427 80.827 0.239 0.307-8.738-36.659-36.625-39.219-25.464-2.321-47.514 8.397-52.019 27.887-0.683 3.003-1.263 6.041-1.809 9.079 5.632 3.721 19.661 9.831 21.64 19.353 2.082 10.070-16.555 18.398-23.825 22.733 7.577 19.524 17.067 50.279 21.368 73.933 3.857 7.373 4.13 6.622 8.67 11.503 64.512 69.086 91.648-31.71 91.648-31.71 1.843 0.853 77.005 38.161 30.208 101.99z" />
<glyph unicode="&#xe60c;" d="M428.032 254.72h-59.392l67.584 67.584c4.096 4.096 4.096 10.24 0 14.336s-10.24 4.096-14.336 0l-81.92-81.92h-256c-6.144 0-10.24-4.096-10.24-10.24 0-75.776 53.248-133.12 122.88-133.12h118.784c69.632 0 122.88 57.344 122.88 133.12 0 6.144-4.096 10.24-10.24 10.24zM315.392 131.84h-118.784c-55.296 0-96.256 43.008-100.352 102.4h321.536c-4.096-59.392-47.104-102.4-102.4-102.4z" />
<glyph unicode="&#xe60d;" d="M425.984 60.16l-75.776 75.776c53.248 55.296 53.248 145.408-2.048 200.704-28.672 26.624-63.488 40.96-102.4 40.96s-73.728-14.336-102.4-40.96c-55.296-55.296-55.296-147.456 0-202.752 26.624-26.624 63.488-40.96 102.4-40.96 32.768 0 63.488 10.24 88.064 30.72l75.776-75.776c2.048-2.048 4.096-2.048 8.192-2.048s6.144 0 8.192 2.048 4.096 8.192 0 12.288zM159.744 148.224c-47.104 47.104-47.104 124.928 0 172.032 22.528 22.528 53.248 36.864 86.016 36.864s63.488-12.288 86.016-34.816c47.104-47.104 47.104-124.928 0-172.032-22.528-24.576-53.248-38.912-86.016-38.912s-63.488 14.336-86.016 36.864z" />
<glyph unicode="&#xe60e;" d="M438.272 355.072l-116.736 57.344c-2.048 2.048-6.144 2.048-8.192 2.048s-6.144 0-8.192-2.048l-106.496-51.2c0 0 0 0-2.048 0l-106.496 51.2c-2.048 2.048-4.096 2.048-8.192 2.048s-8.192 0-10.24-2.048c-6.144-4.096-10.24-10.24-10.24-18.432v-286.72c0-8.192 4.096-14.336 12.288-18.432l116.736-57.344c2.048-2.048 4.096-2.048 8.192-2.048s6.144 0 8.192 2.048l106.496 53.248 106.496-53.248c4.096-2.048 6.144-2.048 10.24-2.048s8.192 0 10.24 4.096 10.24 10.24 10.24 16.384v286.72c0 8.192-4.096 16.384-12.288 18.432zM81.92 393.984l102.4-51.2v-286.72l-102.4 51.2v286.72zM204.8 54.016v286.72l102.4 51.2v-286.72l-102.4-51.2zM430.080 49.92l-102.4 51.2v286.72l102.4-51.2v-286.72z" />
<glyph unicode="&#xe60f;" d="M36.572 406.857h512c20.115 0 36.572 16.457 36.572 36.572s-16.457 36.572-36.572 36.572h-512c-20.114 0-36.572-16.457-36.572-36.572s16.457-36.572 36.572-36.572zM548.572 41.143h-512c-20.114 0-36.572-16.457-36.572-36.572s16.457-36.571 36.572-36.571h512c20.115 0 36.572 16.457 36.572 36.572s-16.457 36.572-36.572 36.572zM548.572 260.572h-512c-20.114 0-36.572-16.457-36.572-36.572s16.457-36.572 36.572-36.572h512c20.115 0 36.572 16.457 36.572 36.572s-16.457 36.572-36.572 36.572z" horiz-adv-x="585" />
<glyph unicode="&#xe610;" d="M287.935-32h-95.935v256h-64v88.225l64 0.029-0.104 51.976c0 71.976 19.517 115.77 104.299 115.77h70.588v-88.242h-44.115c-33.016 0-34.603-12.328-34.603-35.342l-0.131-44.162h79.345l-9.352-88.225-69.927-0.029-0.065-256z" />
<glyph unicode="&#xe611;" d="M427 480h-342c-46.75 0-85-38.25-85-85v-342c0-46.75 38.25-85 85-85h342c46.75 0 85 38.25 85 85v342c0 46.75-38.25 85-85 85zM163.9 256h184.2c3.494-10.029 5.4-20.795 5.4-32 0-53.762-43.738-97.5-97.5-97.5s-97.5 43.738-97.5 97.5c0 11.205 1.906 21.971 5.4 32zM448 255.975v-191.975c0-17.6-14.4-32-32-32h-320c-17.6 0-32 14.4-32 32v192h50.054c-2.321-10.301-3.554-21.008-3.554-32 0-80.229 65.271-145.5 145.5-145.5s145.5 65.271 145.5 145.5c0 10.992-1.232 21.699-3.554 32l50.054-0.025zM448 368c0-8.8-7.2-16-16-16h-32c-8.8 0-16 7.2-16 16v32c0 8.8 7.2 16 16 16h32c8.8 0 16-7.2 16-16v-32z" />
<glyph unicode="&#xe612;" d="M512 382.791c-18.838-8.354-39.082-14.001-60.33-16.54 21.686 13 38.343 33.585 46.186 58.115-20.298-12.039-42.778-20.78-66.705-25.49-19.16 20.415-46.461 33.17-76.673 33.17-58.011 0-105.044-47.029-105.044-105.039 0-8.233 0.929-16.25 2.72-23.939-87.3 4.382-164.701 46.2-216.509 109.753-9.042-15.514-14.223-33.558-14.223-52.809 0-36.444 18.544-68.596 46.73-87.433-17.219 0.546-33.416 5.271-47.577 13.139-0.010-0.438-0.010-0.878-0.010-1.321 0-50.894 36.209-93.348 84.261-103-8.813-2.4-18.094-3.686-27.674-3.686-6.769 0-13.349 0.66-19.764 1.886 13.368-41.73 52.16-72.103 98.126-72.948-35.95-28.175-81.243-44.967-130.458-44.967-8.479 0-16.84 0.497-25.058 1.47 46.486-29.805 101.701-47.197 161.021-47.197 193.211 0 298.868 160.062 298.868 298.872 0 4.554-0.103 9.084-0.305 13.59 20.528 14.81 38.336 33.31 52.418 54.374z" />
<glyph unicode="&#xe613;" d="M256 480c-141.385 0-256-114.615-256-256s114.613-256 256-256c141.385 0 256 114.615 256 256s-114.615 256-256 256zM280.822 137.941c-23.26 1.807-33.021 13.328-51.252 24.404-10.030-52.588-22.282-103.008-58.57-129.343-11.202 79.484 16.447 139.182 29.285 202.557-21.892 36.853 2.635 111.017 48.81 92.737 56.813-22.474-49.2-137.004 21.966-151.308 74.31-14.934 104.644 128.929 58.571 175.712-66.579 67.553-193.799 1.54-178.155-95.178 3.807-23.646 28.236-30.819 9.762-63.451-42.61 9.446-55.325 43.051-53.688 87.856 2.634 73.337 65.892 124.682 129.343 131.783 80.242 8.982 155.553-29.454 165.953-104.938 11.706-85.195-36.224-177.465-122.025-170.831z" />
<glyph unicode="&#xe614;" d="M317.414 142.899c6.861-6.938 6.861-18.151 0-25.063-6.861-6.938-17.945-6.938-24.807 0l-98.048 100.019c-6.861 6.938-6.861 18.151 0 25.063l98.048 100.045c6.861 6.938 17.945 6.938 24.807 0s6.861-18.125 0-25.063l-80.384-87.501 80.384-87.501z" />
<glyph unicode="&#xe615;" d="M343.501 291.815c6.938 6.861 18.151 6.861 25.063 0 6.938-6.861 6.938-17.945 0-24.806l-100.019-98.048c-6.938-6.861-18.15-6.861-25.063 0l-100.045 98.048c-6.912 6.861-6.912 17.945 0 24.806 6.938 6.861 18.125 6.861 25.063 0l87.501-80.384 87.501 80.384z" />
<glyph unicode="&#xe616;" d="M168.474 168.986c-6.938-6.861-18.125-6.861-25.063 0-6.912 6.861-6.938 17.945 0 24.832l100.045 97.997c6.938 6.861 18.151 6.861 25.063 0l100.045-98.023c6.938-6.887 6.938-17.971 0-24.832s-18.125-6.861-25.063 0l-87.526 80.41-87.501-80.384z" />
<glyph unicode="&#xe617;" d="M194.585 142.899c-6.861-6.938-6.861-18.151 0-25.063 6.835-6.938 17.946-6.938 24.806 0l98.048 100.019c6.861 6.938 6.861 18.151 0 25.063l-98.048 100.045c-6.861 6.938-17.946 6.938-24.806 0s-6.861-18.125-0.025-25.037l80.409-87.527-80.384-87.501z" />
<glyph unicode="&#xe618;" d="M368.615 40.499c6.861-6.938 6.861-18.125 0-25.063s-17.945-6.938-24.807 0l-200.448 202.419c-6.861 6.938-6.861 18.151 0 25.063l200.448 202.445c6.861 6.938 17.945 6.938 24.807 0s6.861-18.125 0-25.063l-182.784-189.901 182.784-189.901z" />
<glyph unicode="&#xe619;" d="M66.099 343.014c-6.938 6.861-18.151 6.861-25.063 0-6.912-6.835-6.912-17.946 0-24.807l202.445-200.448c6.938-6.861 18.125-6.861 25.063 0l202.445 200.448c6.912 6.861 6.938 17.945 0 24.806s-18.176 6.861-25.063 0.026l-189.927-182.81-189.901 182.784z" />
<glyph unicode="&#xe61a;" d="M445.901 117.785c6.938-6.861 18.151-6.861 25.063 0 6.938 6.861 6.938 17.945 0 24.807l-202.445 200.448c-6.912 6.861-18.125 6.861-25.037 0l-202.445-200.448c-6.912-6.861-6.938-17.945 0-24.807s18.125-6.861 25.063 0l189.901 182.81 189.901-182.81z" />
<glyph unicode="&#xe61b;" d="M256 254.72c-16.384 0-30.72-14.336-30.72-30.72s14.336-30.72 30.72-30.72 30.72 14.336 30.72 30.72-14.336 30.72-30.72 30.72zM256 213.76c-6.144 0-10.24 4.096-10.24 10.24s4.096 10.24 10.24 10.24 10.24-4.096 10.24-10.24-4.096-10.24-10.24-10.24zM256 336.64c-61.44 0-112.64-51.2-112.64-112.64s51.2-112.64 112.64-112.64 112.64 51.2 112.64 112.64-51.2 112.64-112.64 112.64zM256 131.84c-51.2 0-92.16 40.96-92.16 92.16s40.96 92.16 92.16 92.16 92.16-40.96 92.16-92.16-40.96-92.16-92.16-92.16zM256 418.56c-106.496 0-194.56-88.064-194.56-194.56s88.064-194.56 194.56-194.56 194.56 88.064 194.56 194.56-88.064 194.56-194.56 194.56zM256 49.92c-96.256 0-174.080 77.824-174.080 174.080s77.824 174.080 174.080 174.080 174.080-77.824 174.080-174.080-77.824-174.080-174.080-174.080z" />
<glyph unicode="&#xe61c;" d="M112.64 152.32c-28.672 0-51.2-22.528-51.2-51.2s22.528-51.2 51.2-51.2 51.2 22.528 51.2 51.2-22.528 51.2-51.2 51.2zM112.64 70.4c-16.384 0-30.72 14.336-30.72 30.72s14.336 30.72 30.72 30.72 30.72-14.336 30.72-30.72-14.336-30.72-30.72-30.72zM225.28 336.64h204.8c6.144 0 10.24 4.096 10.24 10.24s-4.096 10.24-10.24 10.24h-204.8c-6.144 0-10.24-4.096-10.24-10.24s4.096-10.24 10.24-10.24zM430.080 234.24h-204.8c-6.144 0-10.24-4.096-10.24-10.24s4.096-10.24 10.24-10.24h204.8c6.144 0 10.24 4.096 10.24 10.24s-4.096 10.24-10.24 10.24zM430.080 111.36h-204.8c-6.144 0-10.24-4.096-10.24-10.24s4.096-10.24 10.24-10.24h204.8c6.144 0 10.24 4.096 10.24 10.24s-4.096 10.24-10.24 10.24zM112.64 398.080c-28.672 0-51.2-22.528-51.2-51.2s22.528-51.2 51.2-51.2 51.2 22.528 51.2 51.2-22.528 51.2-51.2 51.2zM112.64 316.16c-16.384 0-30.72 14.336-30.72 30.72s14.336 30.72 30.72 30.72 30.72-14.336 30.72-30.72-14.336-30.72-30.72-30.72zM112.64 275.2c-28.672 0-51.2-22.528-51.2-51.2s22.528-51.2 51.2-51.2 51.2 22.528 51.2 51.2-22.528 51.2-51.2 51.2zM112.64 193.28c-16.384 0-30.72 14.336-30.72 30.72s14.336 30.72 30.72 30.72 30.72-14.336 30.72-30.72-14.336-30.72-30.72-30.72z" />
<glyph unicode="&#xe61d;" d="M320.717 22.723c-78.971 0-173.118 36.127-173.118 208.159 0 172.053 94.147 208.159 173.138 208.159 2.99 0 5.796-1.29 7.741-3.543 1.966-2.253 2.826-5.243 2.396-8.171l-14.029-96.072c-0.656-4.403-4.075-7.905-8.478-8.622l-49.337-8.11c-5.202-8.171-19.149-34.652-19.149-83.641 0-48.947 13.906-75.407 19.169-83.641l49.296-8.11c4.403-0.717 7.824-4.199 8.478-8.622l14.029-96.072c0.43-2.949-0.43-5.918-2.396-8.171-1.945-2.253-4.752-3.543-7.741-3.543zM308.859 418.253c-93.43-4.834-140.78-67.83-140.78-187.371s47.35-182.538 140.759-187.372l-11.202 76.636-46.121 7.577c-2.396 0.389-4.588 1.618-6.144 3.481-1.065 1.25-25.948 31.355-25.948 99.676 0 68.301 24.883 98.427 25.948 99.676 1.577 1.863 3.748 3.092 6.144 3.481l46.141 7.577 11.202 76.636z" />
<glyph unicode="&#xe61e;" d="M256 418.56c-75.776 0-135.168-61.44-135.168-135.168 0-22.528 6.144-47.104 18.432-67.584l108.544-182.272c2.048-4.096 6.144-4.096 8.192-4.096s6.144 2.048 8.192 4.096l108.544 182.272c12.288 20.48 18.432 43.008 18.432 67.584 0 73.728-59.392 135.168-135.168 135.168zM356.352 226.048l-100.352-167.936-100.352 165.888c-10.24 16.384-14.336 36.864-14.336 57.344 0 65.536 51.2 116.736 114.688 116.736s114.688-51.2 114.688-114.688c0-20.48-4.096-38.912-14.336-57.344zM256 359.168c-40.96 0-73.728-32.768-73.728-73.728s32.768-73.728 73.728-73.728 73.728 32.768 73.728 73.728c0 38.912-32.768 73.728-73.728 73.728zM256 230.144c-28.672 0-53.248 24.576-53.248 53.248s24.576 53.248 53.248 53.248 53.248-24.576 53.248-53.248-24.576-53.248-53.248-53.248z" />
<glyph unicode="&#xe61f;" d="M376.832 330.496c-4.096 2.048-8.192 2.048-10.24 0l-24.576-16.384-24.576 16.384c-4.096 34.816-32.768 61.44-67.584 61.44s-63.488-26.624-67.584-61.44l-26.624-18.432-26.624 18.432c-2.048 2.048-6.144 2.048-10.24 0s-6.144-6.144-6.144-10.24v-241.664c0-4.096 6.144-8.192 10.24-8.192h247.808c6.144 0 10.24 4.096 10.24 10.24v239.616c2.048 4.096 0 8.192-4.096 10.24zM247.808 369.408c26.624 0 47.104-20.48 49.152-45.056l-16.384-12.288-24.576 16.384c-4.096 2.048-8.192 2.048-12.288 0l-24.576-16.384-18.432 12.288c0 24.576 22.528 45.056 47.104 45.056zM362.496 90.88h-229.376v210.944l14.336-10.24c4.096-2.048 8.192-2.048 12.288 0l24.576 16.384 24.576-16.384c4.096-2.048 8.192-2.048 12.288 0l24.576 16.384 24.576-16.384c4.096-2.048 8.192-2.048 12.288 0l24.576 16.384 24.576-16.384c4.096-2.048 8.192-2.048 12.288 0l14.336 10.24v-210.944z" />
<glyph unicode="&#xe620;" d="M143.352 40.499c-6.861-6.938-6.861-18.125 0-25.063s17.946-6.938 24.806 0l200.448 202.419c6.861 6.938 6.861 18.151 0 25.063l-200.448 202.445c-6.861 6.938-17.946 6.938-24.806 0s-6.861-18.125 0-25.063l182.784-189.901-182.784-189.901z" />
<glyph unicode="&#xe622;" d="M378.88 316.16h-18.432c26.624 18.432 36.864 49.152 22.528 71.68-8.192 14.336-22.528 20.48-40.96 20.48-12.288 0-24.576-4.096-34.816-10.24-8.192-6.144-16.384-12.288-20.48-20.48l-28.672-45.056-30.72 45.056c-6.144 8.192-12.288 14.336-20.48 20.48-12.288 6.144-24.576 10.24-36.864 10.24-18.432 0-32.768-8.192-40.96-20.48-14.336-22.528-4.096-55.296 22.528-71.68h-18.432c-6.144 0-10.24-4.096-10.24-10.24v-245.76c0-6.144 4.096-10.24 10.24-10.24h245.76c6.144 0 10.24 4.096 10.24 10.24v245.76c0 6.144-4.096 10.24-10.24 10.24zM368.64 193.28h-102.4v102.4h102.4v-102.4zM303.104 365.312c4.096 6.144 8.192 12.288 14.336 14.336 8.192 4.096 16.384 8.192 24.576 8.192 10.24 0 18.432-4.096 24.576-12.288 8.192-14.336 0-32.768-18.432-45.056-6.144-4.096-12.288-6.144-18.432-6.144l-57.344-6.144 30.72 47.104zM147.456 375.552c4.096 8.192 12.288 12.288 24.576 12.288 8.192 0 16.384-2.048 24.576-8.192 4.096-2.048 8.192-8.192 12.288-14.336l30.72-47.104-55.296 6.144c-6.144 2.048-14.336 4.096-20.48 8.192-18.432 10.24-26.624 30.72-16.384 43.008zM245.76 295.68v-102.4h-102.4v102.4h102.4zM143.36 172.8h102.4v-102.4h-102.4v102.4zM266.24 70.4v102.4h102.4v-102.4h-102.4z" />
<glyph unicode="&#xe623;" d="M430.080 131.84h-63.488c6.144 8.192 12.288 22.528 16.384 38.912 20.48 73.728-24.576 122.88-26.624 124.928s-6.144 4.096-10.24 2.048c-4.096 0-6.144-4.096-8.192-8.192-2.048-8.192-10.24-30.72-20.48-34.816-2.048-2.048-6.144-2.048-8.192 0-6.144 2.048-12.288 8.192-14.336 14.336-8.192 22.528 8.192 59.392 14.336 71.68 2.048 4.096 2.048 6.144 0 10.24 0 4.096-4.096 6.144-6.144 6.144s-49.152 0-79.872-36.864c-20.48-24.576-28.672-59.392-24.576-102.4-10.24 2.048-24.576 12.288-34.816 47.104 0 2.048-4.096 6.144-6.144 6.144-2.048 2.048-6.144 0-8.192 0-4.096-2.048-26.624-32.768-28.672-69.632 0-18.432 4.096-43.008 26.624-67.584h-65.536c-10.24 0-20.48-10.24-20.48-20.48v-40.96c0-10.24 10.24-20.48 20.48-20.48h348.16c10.24 0 20.48 10.24 20.48 20.48v40.96c0 8.192-10.24 18.432-20.48 18.432zM139.264 187.136c-2.048 20.48 4.096 38.912 10.24 51.2 8.192-16.384 18.432-28.672 30.72-36.864 16.384-8.192 30.72-4.096 32.768-4.096 4.096 2.048 8.192 6.144 6.144 12.288-6.144 43.008 0 75.776 18.432 96.256 14.336 16.384 32.768 24.576 47.104 26.624-8.192-18.432-16.384-49.152-8.192-71.68 4.096-12.288 12.288-20.48 24.576-26.624 8.192-4.096 18.432-4.096 26.624 0 12.288 6.144 20.48 18.432 24.576 28.672 10.24-16.384 22.528-49.152 10.24-90.112-6.144-26.624-18.432-40.96-24.576-45.056h-163.84c-20.48 20.48-32.768 38.912-34.816 59.392zM430.080 70.4h-348.16v40.96h348.16v-40.96z" />
<glyph unicode="&#xf167;" d="M277.428 120v-60.286q0-19.143-11.143-19.143-6.572 0-12.857 6.286v86q6.285 6.286 12.857 6.286 11.143 0 11.143-19.143zM374 119.714v-13.143h-25.714v13.143q0 19.428 12.857 19.428t12.857-19.428zM98 182h30.572v26.857h-89.143v-26.857h30v-162.572h28.572v162.572zM180.286 19.429h25.428v141.143h-25.428v-108q-8.572-12-16.286-12-5.143 0-6 6-0.286 0.857-0.286 10v104h-25.428v-111.714q0-14 2.286-20.857 3.429-10.572 16.572-10.572 13.714 0 29.143 17.428v-15.428zM302.857 61.714v56.286q0 20.857-2.572 28.286-4.857 16-20.286 16-14.286 0-26.572-15.428v62h-25.428v-189.429h25.428v13.714q12.857-15.714 26.572-15.714 15.428 0 20.286 15.714 2.572 7.714 2.572 28.572zM399.428 64.572v3.714h-26q0-14.572-0.572-17.428-2-10.286-11.428-10.286-13.143 0-13.143 19.714v24.857h51.143v29.428q0 22.572-7.714 33.143-11.143 14.572-30.286 14.572-19.428 0-30.572-14.572-8-10.572-8-33.143v-49.428q0-22.572 8.286-33.143 11.143-14.572 30.857-14.572 20.572 0 30.857 15.143 5.143 7.714 6 15.428 0.572 2.572 0.572 16.572zM225.714 325.429v60q0 19.714-12.286 19.714t-12.286-19.714v-60q0-20 12.286-20t12.286 20zM431.143 110.857q0-66.857-7.428-100-4-16.857-16.572-28.286t-29.143-13.143q-52.572-6-158.571-6t-158.571 6q-16.572 1.714-29.285 13.143t-16.428 28.286q-7.428 32-7.428 100 0 66.857 7.428 100 4 16.857 16.572 28.286t29.428 13.428q52.285 5.714 158.286 5.714t158.571-5.714q16.572-2 29.286-13.428t16.428-28.286q7.428-32 7.428-100zM146 475.429h29.143l-34.571-114v-77.428h-28.572v77.428q-4 21.143-17.428 60.572-10.572 29.428-18.572 53.428h30.285l20.285-75.143zM251.714 380.286v-50q0-23.143-8-33.714-10.572-14.572-30.286-14.572-19.143 0-30 14.572-8 10.857-8 33.714v50q0 22.857 8 33.428 10.857 14.572 30 14.572 19.714 0 30.286-14.572 8-10.572 8-33.428zM347.428 426.572v-142.571h-26v15.714q-15.143-17.714-29.428-17.714-13.143 0-16.857 10.572-2.286 6.857-2.286 21.428v112.572h26v-104.857q0-9.428 0.286-10 0.857-6.286 6-6.286 7.714 0 16.286 12.286v108.857h26z" />
</font>
</defs>
</svg>
