<?xml version="1.0" standalone="no"?>
<!DOCTYPE svg PUBLIC "-//W3C//DTD SVG 1.1//EN" "http://www.w3.org/Graphics/SVG/1.1/DTD/svg11.dtd" >
<svg xmlns="http://www.w3.org/2000/svg">
<metadata></metadata>
<defs>
<font id="ostrich_sans_roundregular" horiz-adv-x="811" >
<font-face units-per-em="2048" ascent="1638" descent="-410" />
<missing-glyph horiz-adv-x="473" />
<glyph horiz-adv-x="0" />
<glyph horiz-adv-x="682" />
<glyph horiz-adv-x="0" />
<glyph horiz-adv-x="0" />
<glyph unicode="&#xd;" horiz-adv-x="507" />
<glyph unicode=" "  horiz-adv-x="473" />
<glyph unicode="&#x09;" horiz-adv-x="473" />
<glyph unicode="&#xa0;" horiz-adv-x="473" />
<glyph unicode="!" horiz-adv-x="241" d="M10 41v45q0 17 11 28t28 11h23q16 0 27.5 -11t11.5 -28v-45q0 -17 -11.5 -28t-27.5 -11h-23q-17 0 -28 11t-11 28zM10 238v1105q0 17 11 28t28 11h23q16 0 27.5 -11t11.5 -28v-1105q0 -17 -11.5 -28t-27.5 -11h-23q-17 0 -28 11t-11 28z" />
<glyph unicode="&#x22;" horiz-adv-x="403" d="M14 1206v135q0 17 11 28t26 11h25q16 0 27.5 -11t11.5 -28v-135q0 -15 -12 -27t-27 -12h-25q-15 0 -26 12t-11 27zM172 1206v135q0 17 11.5 28t27.5 11h22q17 0 28 -11t11 -28v-135q0 -16 -11 -27.5t-28 -11.5h-22q-15 0 -27 12t-12 27z" />
<glyph unicode="#" horiz-adv-x="1161" d="M-41 489v23q0 17 11 28t26 11h256q10 53 28 140.5t27 135.5h-248q-17 0 -28 11.5t-11 27.5v23q0 17 11 28t28 11h269l82 422q1 12 12.5 21t23.5 9h25q19 0 30.5 -13.5t8.5 -33.5l-82 -405h246q10 57 80 422q1 12 13 21t24 9h24q19 0 30.5 -13.5t8.5 -33.5l-78 -405h195 q17 0 28 -11t11 -28v-23q0 -16 -11 -27.5t-28 -11.5h-215q-52 -255 -56 -276h209q16 0 27.5 -11t11.5 -28v-23q0 -17 -11.5 -27.5t-27.5 -10.5h-229q-60 -310 -80 -420q-3 -12 -14.5 -21.5t-24.5 -9.5h-22q-19 0 -30.5 13.5t-8.5 33.5l78 404h-242l-84 -420 q-3 -12 -14.5 -21.5t-24.5 -9.5h-20q-19 0 -30.5 13.5t-8.5 33.5l77 404h-235q-15 0 -26 10.5t-11 27.5zM356 551h240q52 258 55 276h-241z" />
<glyph unicode="$" horiz-adv-x="706" d="M66 432v23q0 15 11.5 27t26.5 12h21q17 0 28 -11.5t11 -27.5v-23q0 -96 29 -151t77 -68v453q-194 146 -194 323q0 101 53.5 180.5t140.5 102.5v71q0 17 11.5 28t27.5 11h25q17 0 28 -11t11 -28v-67q107 -14 156 -101t49 -227v-8q0 -17 -11 -28t-28 -11h-23 q-16 0 -27.5 11t-11.5 28v8q0 46 -4 79.5t-14 66t-32 52t-54 25.5v-458q29 -21 49 -37t53 -49t53.5 -64t36 -75.5t15.5 -90.5q0 -123 -60 -199t-147 -92v-67q0 -17 -11 -28t-28 -11h-25q-16 0 -27.5 11t-11.5 28v70q-97 24 -150.5 107t-53.5 216zM178 987q0 -96 92 -188v360 q-40 -27 -66 -74.5t-26 -97.5zM373 215q48 18 77 64.5t29 119.5q0 87 -106 185v-369z" />
<glyph unicode="%" horiz-adv-x="970" d="M-2 915v172q0 89 50.5 146t129.5 57q82 0 133 -57t51 -146v-172q0 -89 -51 -145.5t-133 -56.5q-80 0 -130 56.5t-50 145.5zM98 915q0 -41 20 -71.5t60 -30.5q42 0 62 30t20 72v172q0 41 -20 71t-62 30q-40 0 -60 -30.5t-20 -70.5v-172zM109 51l522 1305q4 10 18.5 17 t26.5 7h22q23 0 31 -15.5t-2 -35.5l-516 -1290q-14 -39 -45 -39h-25q-21 0 -30.5 15t-1.5 36zM485 293v172q0 88 50.5 143.5t132.5 55.5q79 0 129.5 -55.5t50.5 -143.5v-172q0 -91 -50 -148t-130 -57q-82 0 -132.5 57t-50.5 148zM586 293q0 -42 20 -72.5t62 -30.5 q40 0 61 31t21 72v172q0 36 -21.5 68t-60.5 32q-41 0 -61.5 -31.5t-20.5 -68.5v-172z" />
<glyph unicode="&#x26;" horiz-adv-x="923" d="M-4 340q0 57 17 111.5t40.5 94t62.5 81.5t67.5 67t70.5 58q-3 6 -24.5 41.5t-39 67.5t-37.5 75t-32 86t-12 78q0 38 4.5 72.5t19.5 74t38.5 67.5t66 47t98.5 19q221 0 221 -280q0 -62 -12.5 -114t-41 -98t-49 -71.5t-59.5 -68.5q-7 -7 -10 -11l227 -405q6 20 11 40 t8 41.5t4.5 35t2.5 37t1 31v33v28.5v45q0 15 12 27t27 12h24q15 0 26 -12t11 -27v-31q0 -72 -2 -116t-16 -118t-41 -133l18 -35l-2 3l78 -136q11 -20 0 -38.5t-35 -18.5h-22q-19 0 -33 18l-66 113q-122 -131 -301 -131q-142 0 -231.5 98t-89.5 242zM96 344q0 -41 13.5 -82.5 t39 -78.5t69.5 -60t99 -23q161 0 246 125l-260 443q-31 -25 -59.5 -52.5t-65.5 -71.5t-59.5 -96.5t-22.5 -103.5zM209 1100q0 -83 121 -281q74 86 100.5 149.5t26.5 131.5q0 178 -121 178q-53 0 -90 -42t-37 -136z" />
<glyph unicode="'" horiz-adv-x="217" d="M12 1206v135q0 17 11 28t28 11h23q16 0 27.5 -11t11.5 -28v-135q0 -15 -12 -27t-27 -12h-23q-17 0 -28 11.5t-11 27.5z" />
<glyph unicode="(" horiz-adv-x="391" d="M12 694q0 341 92 539v-2q40 85 89 129q13 12 31.5 8.5t27.5 -20.5l14 -23q4 -11 1 -25t-11 -22q-34 -30 -66 -96l3 2q-80 -192 -80 -490q0 -289 82 -495l-2 2q12 -24 29 -51t28 -42l10 -14q8 -10 7.5 -26t-9.5 -25l-16 -16q-11 -10 -27 -9.5t-27 9.5q-19 18 -37 41.5 t-45 79t-46 123.5t-33.5 179.5t-14.5 243.5z" />
<glyph unicode=")" horiz-adv-x="374" d="M25.5 68q-0.5 16 7.5 26q40 52 67 107v-2q80 201 80 495q0 298 -80 490l2 -2q-33 68 -65 96q-8 8 -11 22t3 25l12 23q9 17 27.5 20.5t31.5 -8.5q47 -42 88 -129v2q93 -200 93 -539q0 -132 -14.5 -243.5t-34 -179.5t-46.5 -123.5t-45 -79t-37 -41.5q-11 -9 -26.5 -9.5 t-26.5 9.5l-16 16q-9 9 -9.5 25z" />
<glyph unicode="*" horiz-adv-x="655" d="M25 1184l8 20q13 38 51 25l145 -55v159q0 17 11 28t28 11h23q16 0 27.5 -11t11.5 -28v-159l147 55q18 6 32.5 -1.5t18.5 -25.5l9 -22q3 -15 -4.5 -29t-20.5 -18l-143 -52l110 -127q10 -11 9.5 -26.5t-11.5 -24.5l-18 -18q-12 -11 -29 -10.5t-27 12.5l-124 143l-121 -143 q-9 -9 -24.5 -11t-27.5 5l-16 14q-15 11 -17.5 28t9.5 29l108 129q-15 6 -65 25.5t-78 28.5q-15 6 -21 20t-1 29z" />
<glyph unicode="+" horiz-adv-x="718" d="M18 674v24q0 15 12 27t27 12h193v213q0 15 12 26t27 11h24q15 0 26 -11t11 -26v-213h195q15 0 27 -12t12 -27v-24q0 -15 -12 -26t-27 -11h-195v-213q0 -17 -11 -28t-26 -11h-24q-16 0 -27.5 11t-11.5 28v213h-193q-15 0 -27 11t-12 26z" />
<glyph unicode="," horiz-adv-x="212" d="M-43 -29l47 127q1 10 13 17.5t22 7.5h29q22 0 33 -16.5t3 -36.5l-57 -127q-5 -9 -16 -17t-21 -8h-16q-22 0 -33.5 16.5t-3.5 36.5z" />
<glyph unicode="-" horiz-adv-x="663" d="M23 674v22q0 16 10.5 27.5t27.5 11.5h445q15 0 27 -12t12 -27v-22q0 -17 -11.5 -28t-27.5 -11h-445q-17 0 -27.5 11t-10.5 28z" />
<glyph unicode="." horiz-adv-x="217" d="M16 39v47q0 15 11 26t28 11h25q15 0 27 -11t12 -26v-47q0 -17 -11.5 -28t-27.5 -11h-25q-17 0 -28 11t-11 28z" />
<glyph unicode="/" horiz-adv-x="837" d="M49 51l522 1305q5 8 16 16t21 8h25q22 0 34 -15.5t3 -35.5l-523 -1304q-15 -25 -36 -25h-25q-22 0 -34 15.5t-3 35.5z" />
<glyph unicode="0" horiz-adv-x="690" d="M12 328v727q2 72 18 130t49 105.5t90.5 74t135.5 26.5q76 0 133 -29t89 -78t47.5 -106.5t15.5 -122.5v-727q-2 -69 -18 -127t-48.5 -106.5t-89 -76.5t-131.5 -28h-2q-76 3 -133.5 32t-90.5 77t-49 105.5t-16 123.5zM113 356q0 -133 51 -199.5t139 -66.5t136 65t48 199 v674q0 262 -182 262q-89 0 -140.5 -63.5t-51.5 -196.5v-674z" />
<glyph unicode="1" horiz-adv-x="489" d="M47 1153q112 154 162 213q12 14 36.5 17t44.5 -8.5t21 -33.5v-1302q0 -17 -11.5 -28t-27.5 -11h-24q-15 0 -26 11t-11 28v1157l-86 -104q-12 -14 -28.5 -15.5t-30.5 10.5l-15 15q-22 22 -4 51z" />
<glyph unicode="2" horiz-adv-x="686" d="M20 39v12q3 363 234 580q97 88 149 199.5t52 228.5q0 62 -14 111.5t-53.5 85.5t-100.5 36q-49 0 -82.5 -16t-51 -45.5t-25 -64t-7.5 -79.5v-26q0 -15 -12 -26t-27 -11h-23q-17 0 -28 11t-11 26v26q3 149 62 227.5t205 78.5q62 0 110 -20.5t77.5 -53t48 -78t25.5 -90.5 t7 -96q0 -141 -60 -271.5t-176 -232.5q-90 -81 -139 -201t-57 -252h393q17 0 28 -11t11 -28v-20q0 -17 -11 -28t-28 -11h-457q-17 0 -28 11t-11 28z" />
<glyph unicode="3" horiz-adv-x="673" d="M16 334q0 17 11 28t28 11h23q16 0 27.5 -11t11.5 -28q2 -79 13 -128t34 -74t50.5 -33.5t72.5 -8.5q162 0 162 275q0 66 -14 115.5t-34.5 77.5t-51.5 46t-58 24.5t-60 8.5q-15 1 -25.5 12t-10.5 25v22q0 14 9.5 26t24.5 13q41 3 77 18t70 45.5t53.5 85.5t19.5 130 q0 129 -38.5 202.5t-121.5 73.5q-84 0 -126 -54t-46 -194q0 -15 -12 -25.5t-27 -10.5h-23q-17 0 -28 11.5t-11 26.5q4 186 73.5 266.5t197.5 80.5q127 0 195.5 -99t68.5 -278q0 -118 -38.5 -199.5t-102.5 -124.5q141 -81 141 -325q0 -198 -68 -286.5t-196 -88.5 q-70 0 -115 12.5t-82.5 48.5t-55 105.5t-18.5 177.5z" />
<glyph unicode="4" horiz-adv-x="679" d="M4 501.5q-20 32.5 2 82.5l375 778q3 6 14 12t19 6h26q16 0 27.5 -11t11.5 -28v-768h53q15 0 27 -11.5t12 -26.5v-27q0 -17 -11.5 -28t-27.5 -11h-53v-430q0 -17 -11.5 -28t-27.5 -11h-24q-15 0 -26 11t-11 28v430h-309q-46 0 -66 32.5zM119 573h260v555z" />
<glyph unicode="5" horiz-adv-x="686" d="M14 299v39q0 16 11 27.5t28 11.5h23q17 0 28 -11.5t11 -27.5v-29q1 -46 5 -76.5t14 -60t28 -46.5t47.5 -27.5t71.5 -10.5q46 0 79.5 22.5t51.5 60.5t26 80.5t8 90.5v166q-1 49 -4.5 82.5t-13.5 71t-27 60t-47.5 37.5t-72.5 15q-59 0 -105 -46t-63 -120q-3 -11 -14 -19.5 t-23 -8.5h-23q-17 0 -28 11.5t-11 26.5v723q0 17 11 28t28 11h418q16 0 27.5 -11t11.5 -28v-20q0 -17 -11.5 -28t-27.5 -11h-356v-504q2 27 55 61.5t111 34.5q76 0 129.5 -26.5t82.5 -76t41.5 -109.5t12.5 -138v-186q1 -68 -14 -128.5t-45.5 -110.5t-83.5 -79.5t-123 -29.5 q-77 0 -129.5 20.5t-82 62.5t-42 96t-13.5 130z" />
<glyph unicode="6" horiz-adv-x="690" d="M14 303v658q0 105 18 184.5t45 125t66 74t75 37.5t77 9q72 0 124 -26.5t79 -73t39 -99.5t12 -117v-18q0 -17 -11 -28t-26 -11h-27q-16 0 -27.5 11t-11.5 28v18q-4 217 -151 217q-44 0 -77.5 -22t-52.5 -55.5t-31 -80t-15.5 -87.5t-3.5 -86v-166q12 38 66 67t104 29 q65 0 113.5 -20.5t76.5 -53t44.5 -80t22 -93t5.5 -101.5v-197q-2 -67 -16.5 -127t-44 -113t-82 -84.5t-123.5 -31.5q-128 0 -197.5 79t-69.5 234zM115 313q0 -30 3 -56.5t13.5 -58.5t28 -54.5t48.5 -38t73 -15.5q47 0 81.5 26.5t51.5 70t24.5 86t7.5 85.5v185q-1 54 -7 93 t-22 77.5t-49 59t-83 20.5q-57 0 -97 -42t-56.5 -96t-16.5 -110v-232z" />
<glyph unicode="7" horiz-adv-x="577" d="M-2 51l379 1229h-332q-15 0 -26 11t-11 28v22q0 17 11 28t26 11h406q33 0 40.5 -30.5t-8.5 -71.5l-389 -1251q-3 -10 -14.5 -18.5t-22.5 -8.5h-22q-21 0 -32 15t-5 36z" />
<glyph unicode="8" horiz-adv-x="714" d="M4 358q0 88 30 180t95 148q-36 30 -59 70.5t-33 88.5t-13.5 86.5t-3.5 88.5q0 371 279 371q75 0 130.5 -28.5t87 -80.5t46.5 -117t15 -145q0 -50 -2.5 -85t-11.5 -86t-32.5 -92.5t-60.5 -70.5q121 -88 121 -328q0 -54 -9 -105t-31 -100t-54.5 -85.5t-83.5 -59t-115 -22.5 q-78 0 -136.5 29t-92 81t-50 117t-16.5 145zM106 354q0 -34 4 -66t17 -70t33 -66t56 -47t83 -19q56 0 96.5 26.5t60 69.5t28 85.5t8.5 86.5q0 285 -193 285q-45 0 -80.5 -19.5t-56 -48.5t-34 -69t-18 -75.5t-4.5 -72.5zM121 1014q0 -279 178 -279q44 0 77 17t52 42.5 t30.5 64t15 74.5t3.5 81q0 276 -178 276t-178 -276z" />
<glyph unicode="9" horiz-adv-x="681" d="M14 305v19q0 17 11 27.5t28 10.5h25q16 0 27.5 -10.5t11.5 -27.5v-19q4 -217 153 -217q54 0 91.5 32t55.5 85.5t25 105t7 109.5v174q0 -29 -57.5 -67t-112.5 -38q-64 0 -112.5 20.5t-76.5 53t-45.5 80.5t-23 93.5t-5.5 101.5v194q2 68 17 128t44.5 114t82 85.5 t123.5 31.5q128 0 197 -79.5t69 -234.5v-657q0 -105 -18 -184.5t-45 -125t-66 -74t-74.5 -37.5t-75.5 -9q-73 0 -125 26t-79.5 73t-39.5 99.5t-12 116.5zM117 838q1 -54 7 -93t22 -77.5t49.5 -59t83.5 -20.5q44 0 78 24t53.5 62t29 79.5t9.5 82.5v231q0 30 -3 56.5 t-13.5 58.5t-28 54.5t-48.5 38t-73 15.5q-47 0 -81.5 -26.5t-52 -70t-25 -86t-7.5 -85.5v-184z" />
<glyph unicode=":" horiz-adv-x="282" d="M20 324v71q0 15 11 26t26 11h25q15 0 27 -11t12 -26v-71q0 -17 -11.5 -28t-27.5 -11h-25q-15 0 -26 11t-11 28zM20 911v72q0 15 11 26t26 11h25q15 0 27 -11t12 -26v-72q0 -17 -11.5 -28t-27.5 -11h-25q-15 0 -26 11t-11 28z" />
<glyph unicode=";" horiz-adv-x="249" d="M-23 295l46 129q3 9 15 17t21 8h27q23 0 34.5 -17t2.5 -37l-55 -129q-5 -8 -16 -15t-21 -7h-17q-23 0 -34 15.5t-3 35.5zM20 911v72q0 15 12 26t27 11h23q15 0 26 -11t11 -26v-72q0 -17 -11 -28t-26 -11h-23q-16 0 -27.5 11t-11.5 28z" />
<glyph unicode="&#x3c;" horiz-adv-x="536" d="M35 690l268 666q3 8 15 16t22 8h25q22 0 32.5 -15.5t3.5 -35.5l-256 -639l256 -639q7 -20 -3.5 -35.5t-32.5 -15.5h-25q-10 0 -22 8.5t-15 16.5z" />
<glyph unicode="=" horiz-adv-x="690" d="M23 500v20q0 16 10.5 27.5t27.5 11.5h445q15 0 27 -12t12 -27v-20q0 -17 -11.5 -28t-27.5 -11h-445q-17 0 -27.5 11t-10.5 28zM23 915v25q0 16 10.5 27.5t27.5 11.5h445q15 0 27 -12t12 -27v-25q0 -15 -12 -25.5t-27 -10.5h-445q-17 0 -27.5 10.5t-10.5 25.5z" />
<glyph unicode="&#x3e;" horiz-adv-x="536" d="M49 51l256 639l-256 639q-9 20 3 35.5t34 15.5h25q10 0 20.5 -7.5t15.5 -16.5l269 -666l-269 -665q-15 -25 -36 -25h-25q-22 0 -34 15.5t-3 35.5z" />
<glyph unicode="?" horiz-adv-x="718" d="M6 983q0 187 76.5 298.5t220.5 111.5q145 0 217 -92.5t72 -258.5q0 -59 -12 -114t-26 -90.5t-42.5 -79.5t-43 -62.5t-46.5 -56.5h2q-53 -69 -68.5 -153t-15.5 -246q0 -17 -11.5 -28t-27.5 -11h-22q-17 0 -28 11t-11 28v22q0 74 2 114.5t10 103t29.5 113.5t56.5 97l22 29 q32 42 47.5 64.5t39 65.5t34.5 88t11 95q0 260 -191 260q-68 0 -113 -43.5t-63.5 -110.5t-18.5 -155q0 -17 -10.5 -28t-25.5 -11h-25q-16 0 -27.5 11t-11.5 28zM240 39v47q0 15 11 26t28 11h22q15 0 27 -11t12 -26v-47q0 -17 -11.5 -28t-27.5 -11h-22q-17 0 -28 11t-11 28z " />
<glyph unicode="@" horiz-adv-x="1376" d="M37 625q0 196 84.5 357.5t242 257t357.5 95.5q130 0 230.5 -44.5t160 -120.5t89.5 -168t30 -195q0 -108 -30 -206.5t-85 -175.5t-141.5 -121.5t-192.5 -43.5q-64 -3 -92 62q-62 -40 -168 -35h2q-97 6 -154 79.5t-57 194.5q0 61 15.5 131t48 140t77 127t109.5 92.5 t139 35.5q59 0 111 -49q3 11 14.5 20t24.5 9h25q19 0 30.5 -13.5t7.5 -33.5l-135 -604q-12 -58 4 -58q75 2 136 32.5t99 76.5t63 106.5t35.5 120t10.5 119.5q0 65 -14 125t-45.5 114.5t-78.5 94.5t-117.5 64t-157.5 24q-119 0 -225 -46t-183 -125t-121.5 -191.5 t-44.5 -239.5q0 -97 28.5 -179.5t78.5 -141.5t117.5 -101t146 -62t164.5 -20q208 0 397 125q6 4 19.5 4t19.5 -4l23 -12q20 -11 22.5 -32.5t-16.5 -33.5q-203 -145 -463 -145q-126 0 -240 38.5t-204 111t-143.5 187.5t-53.5 257zM418 563q0 -80 33.5 -127.5t97.5 -48.5 q60 0 97 42.5t52 93.5t41 177q1 6 2 9q0 5 3.5 15t3.5 11l6 25l-2 -2l6 30q10 73 10 76q0 56 -26.5 88.5t-71.5 32.5q-71 -14 -131 -89.5t-90.5 -166t-30.5 -166.5z" />
<glyph unicode="A" horiz-adv-x="825" d="M4 47q29 130 152 653q80 349 149 650q1 12 12 21t23 9h20q12 0 24 -9t15 -21l295 -1303q1 -5 1 -10q-1 -13 -9 -23q-12 -14 -31 -14h-22q-12 0 -24 9.5t-15 21.5l-84 379h-320l-6 -25q-13 -54 -39.5 -174t-40.5 -180q-3 -11 -14 -21t-24 -10h-23q-19 0 -31 14 q-9 10 -9 23q0 5 1 10zM213 510h274l-137 610z" />
<glyph unicode="B" horiz-adv-x="708" d="M-4 39v1302q0 17 11 28t26 11h215q173 0 242 -86t69 -282q0 -226 -129 -314q154 -79 154 -329q0 -197 -60 -283t-215 -86h-276q-15 0 -26 11t-11 28zM96 100h197q110 0 149 60.5t39 208.5q0 146 -44.5 208t-160.5 62h-180v-539zM96 737h162q108 0 154.5 65.5t46.5 209.5 q0 143 -50.5 206.5t-166.5 63.5h-146v-545z" />
<glyph unicode="C" horiz-adv-x="790" d="M12 342v698q0 89 21 156t52.5 104t77 59.5t85.5 29t88 6.5t88 -6.5t86 -29t78 -59.5t53 -104t21 -156v-55q0 -15 -11 -26t-28 -11h-23q-17 0 -28 11t-11 26v62q0 116 -55 182.5t-170 66.5q-117 0 -170 -71.5t-53 -184.5v-698q0 -119 54.5 -187.5t168.5 -68.5 q115 0 170 67t55 175v69q0 15 11 26t28 11h23q17 0 28 -11t11 -26v-55q0 -356 -326 -356q-48 0 -88 7t-85.5 29.5t-77 59.5t-52.5 104t-21 156z" />
<glyph unicode="D" horiz-adv-x="757" d="M18 39v1302q0 17 11.5 28t27.5 11h248q174 -6 248 -106t74 -275v-618q-3 -181 -78 -281t-244 -100h-248q-16 0 -27.5 11t-11.5 28zM119 98h174q119 0 176 73t57 222v594q0 149 -57 222t-176 73h-174v-1184z" />
<glyph unicode="E" horiz-adv-x="671" d="M14 1341q0 17 11 28t28 11h443q16 0 27.5 -11t11.5 -28v-20q0 -17 -11.5 -28t-27.5 -11h-381v-545h237q15 0 27 -12t12 -27v-22q0 -15 -12 -26t-27 -11h-237v-541h381q16 0 27.5 -11t11.5 -28v-20q0 -17 -11.5 -28t-27.5 -11h-441q-17 0 -28 11t-11 28z" />
<glyph unicode="F" horiz-adv-x="645" d="M8 1341q0 17 11 28t28 11h442q16 0 27.5 -11t11.5 -28v-20q0 -17 -11.5 -28t-27.5 -11h-380v-545h241q15 0 27 -12t12 -27v-22q0 -15 -12 -26t-27 -11h-241v-600q0 -17 -11.5 -28t-27.5 -11h-21q-17 0 -28 11t-11 28z" />
<glyph unicode="G" d="M16 360v682q0 162 82.5 257.5t243.5 95.5q163 0 244.5 -98.5t81.5 -254.5v-38q0 -43 -41 -43h-17q-1 0 -10 1.5t-12.5 3.5t-9.5 8t-8.5 18.5t-2.5 31.5q0 70 -15.5 122t-38 80t-55 44.5t-59 21t-57.5 4.5q-32 0 -58.5 -4.5t-59 -21t-54.5 -44.5t-37.5 -80t-15.5 -122 v-664q0 -121 56 -197.5t169 -76.5q58 0 102.5 23.5t70.5 63t39 87t13 100.5v279h-194q-15 0 -26 11t-11 26v22q0 15 11 27t26 12h256q15 0 27 -12t12 -27v-338q0 -164 -83.5 -269t-242.5 -105q-84 0 -148 30t-102 82.5t-57 118.5t-19 143z" />
<glyph unicode="H" horiz-adv-x="731" d="M16 39v1302q0 17 11.5 28t27.5 11h23q17 0 28 -11t11 -28v-606h389v606q0 17 11.5 28t27.5 11h22q17 0 28 -11t11 -28v-1302q0 -17 -11 -28t-28 -11h-22q-16 0 -27.5 11t-11.5 28v598h-389v-598q0 -17 -11 -28t-28 -11h-23q-16 0 -27.5 11t-11.5 28z" />
<glyph unicode="I" horiz-adv-x="294" d="M29 39v1302q0 17 11.5 28t27.5 11h24q16 0 27.5 -11t11.5 -28v-1302q0 -17 -11.5 -28t-27.5 -11h-24q-16 0 -27.5 11t-11.5 28z" />
<glyph unicode="J" horiz-adv-x="737" d="M-4 334v53q0 15 11 27t26 12h24q15 0 27 -12t12 -27v-43q0 -75 18.5 -128.5t49.5 -80t62 -38t65 -11.5q57 0 97.5 25t60 68.5t28 89t8.5 100.5v981q0 15 12 27t27 12h25q15 0 26 -12t11 -27v-1000q0 -175 -73.5 -269.5t-221.5 -94.5q-150 0 -222.5 98t-72.5 250z" />
<glyph unicode="K" horiz-adv-x="735" d="M16 39v1304q0 17 11.5 28t27.5 11h25q15 0 26 -11t11 -28v-602q243 408 368 623q5 6 15.5 12t17.5 6h29q25 0 35 -18.5t-2 -38.5l-347 -586l187 -331h-2q22 -39 63 -110.5t74 -130t61 -110.5q6 -10 6 -20q0 -9 -6 -19q-12 -18 -34 -18h-29q-19 0 -33 18l-348 619l-55 -88 v-510q0 -17 -11 -28t-26 -11h-25q-16 0 -27.5 11t-11.5 28z" />
<glyph unicode="L" horiz-adv-x="630" d="M4 39v1302q0 17 11 28t28 11h23q15 0 26.5 -11t11.5 -28v-1243h371q17 0 28 -11t11 -28v-20q0 -17 -11 -28t-28 -11h-432q-17 0 -28 11t-11 28z" />
<glyph unicode="M" horiz-adv-x="884" d="M10 39v1302q0 17 11 28t28 11h21q10 0 21.5 -8.5t14.5 -19.5l283 -1100q35 137 131 515.5t150 584.5q1 10 12.5 19t22.5 9h22q16 0 27.5 -11t11.5 -28v-1302q0 -17 -11.5 -28t-27.5 -11h-22q-17 0 -28 11t-11 28v895q-183 -709 -230 -905q-3 -11 -14 -20t-23 -9h-22 q-12 0 -23 9t-14 20l-229 895v-885q0 -17 -11.5 -28t-27.5 -11h-23q-17 0 -28 11t-11 28z" />
<glyph unicode="N" horiz-adv-x="747" d="M16 39v1302q0 17 11 28t26 11h21q9 0 20.5 -8t16.5 -16l419 -1041v1026q0 17 11 28t28 11h23q16 0 27.5 -11t11.5 -28v-1302q0 -17 -11.5 -28t-27.5 -11h-21q-8 0 -19.5 8.5t-16.5 16.5l-123 307q-156 394 -295 737v-1030q0 -17 -11.5 -28t-27.5 -11h-25q-15 0 -26 11 t-11 28z" />
<glyph unicode="O" d="M16 336v711q3 163 81.5 255.5t240.5 92.5q166 0 247 -95t81 -253v-711q0 -89 -21.5 -155.5t-53 -102.5t-78 -58t-86.5 -28t-89 -6q-32 0 -60.5 3t-62 12t-61 24.5t-54 42.5t-44.5 62.5t-29 88t-11 117.5zM117 352q0 -131 52.5 -198.5t168.5 -67.5q121 0 174 67.5 t53 192.5v680q0 265 -225 268q-223 -8 -223 -266v-676z" />
<glyph unicode="P" horiz-adv-x="692" d="M16 39v1302q0 17 11.5 28t27.5 11h236q72 -2 124.5 -20.5t85.5 -49t52.5 -77.5t27 -99t7.5 -122q0 -184 -67 -279.5t-230 -95.5h-174v-598q0 -17 -11 -28t-26 -11h-25q-16 0 -27.5 11t-11.5 28zM117 737h137q59 0 102 13.5t68 36t39.5 59.5t19 75t4.5 91 q0 145 -49.5 206.5t-173.5 61.5h-147v-543z" />
<glyph unicode="Q" horiz-adv-x="815" d="M8 362v705q0 154 80 241t246 87q315 0 321 -328v-705q0 -173 -65 -270q34 -40 35 -41l53 -63q10 -14 10 -27q0 -10 -6 -19q-15 -19 -41.5 -19t-46.5 16l-78 94q-83 -47 -182 -47q-81 0 -144 29.5t-101.5 81.5t-58.5 118.5t-22 146.5zM109 381q0 -76 20.5 -139 t73.5 -108.5t133 -47.5q66 0 115 25q-13 15 -37 45t-37 45q-24 27 2 53q25 24 58 14q14 -5 24 -16l63 -74q31 63 31 189v694q0 235 -221 235q-118 0 -170 -59t-55 -178v-678z" />
<glyph unicode="R" horiz-adv-x="704" d="M-4 39v1302q0 17 11 28t26 11h241q169 0 240.5 -89t71.5 -285q0 -238 -115 -316q107 -67 107 -264v-387q0 -17 -11.5 -28t-27.5 -11h-23q-17 0 -28 11t-11 28v381q0 116 -45 166.5t-160 50.5h-176v-598q0 -17 -11.5 -28t-27.5 -11h-24q-15 0 -26 11t-11 28zM96 737h152 q135 0 185 61.5t50 207.5q0 65 -8 110t-30 84.5t-66 59.5t-111 20h-172v-543z" />
<glyph unicode="S" horiz-adv-x="763" d="M16 362v33q0 15 11 26t26 11h25q15 0 27 -11t12 -26v-33q0 -276 207 -276q104 0 158.5 57.5t54.5 171.5q0 40 -13.5 79.5t-32 69t-50.5 64.5t-55.5 56t-61.5 54t-54 48q-39 34 -57.5 50t-60 60.5t-63.5 80.5t-41 90t-19 108q0 147 85 234.5t218 87.5q152 0 222.5 -90 t70.5 -277v-24q0 -15 -12 -27t-27 -12h-23q-17 0 -28 11.5t-11 27.5v24q0 139 -44.5 202.5t-145.5 63.5q-95 0 -150 -63.5t-55 -169.5q0 -38 18 -79.5t38.5 -71.5t61 -70t61.5 -58t63 -53l3.5 -3.5t4 -3t4.5 -3.5q31 -25 61 -53.5t67 -71t64 -84.5t45.5 -94.5t18.5 -100.5 q0 -168 -82 -248.5t-233 -80.5q-153 0 -230.5 89.5t-77.5 284.5z" />
<glyph unicode="T" horiz-adv-x="778" d="M6 1321v22q0 17 11 28t28 11h586q16 0 27.5 -11t11.5 -28v-22q0 -17 -11.5 -28t-27.5 -11h-244v-1241q0 -17 -11.5 -28t-27.5 -11h-22q-17 0 -28 11t-11 28v1241h-242q-17 0 -28 11t-11 28z" />
<glyph unicode="U" horiz-adv-x="802" d="M8 1343q0 17 11 28t28 11h23q16 0 27.5 -11t11.5 -28v-995q0 -64 16 -113t39.5 -76.5t56 -44.5t59 -22.5t54.5 -5.5t55.5 5.5t59.5 22.5t56 44.5t40 76.5t16 113v995q0 17 11 28t28 11h23q16 0 27.5 -11t11.5 -28v-1007q0 -83 -22 -147t-56 -101t-79.5 -60.5t-86.5 -31.5 t-84 -8q-42 0 -82.5 8t-86 31.5t-78.5 60.5t-55 101t-22 147z" />
<glyph unicode="V" horiz-adv-x="817" d="M4 1333q-2 6 -2 12q0 13 8 23q11 14 31 14h25q12 0 22 -8.5t12 -19.5l252 -1094q41 181 124 546t124 546q3 11 14.5 20.5t24.5 9.5h23q20 0 31 -14q8 -10 8 -23q0 -5 -1 -10l-297 -1302q-3 -12 -14.5 -21.5t-23.5 -9.5h-23q-12 0 -22.5 9t-12.5 20z" />
<glyph unicode="W" horiz-adv-x="1173" d="M4 1333q-1 4 -1 8q-1 15 9 25q12 14 31 14h25q12 0 23.5 -9t12.5 -21l230 -1041l162 1039q1 13 12.5 22.5t23.5 9.5h21q12 0 24 -9.5t15 -22.5l162 -1035q38 182 113 530.5t108 506.5q3 12 14.5 21t24.5 9h22q20 0 32 -14q9 -10 8 -23q0 -5 -1 -10l-280 -1302 q-3 -12 -14.5 -21.5t-24.5 -9.5h-19q-13 0 -24.5 10t-14.5 23l-155 1001q-30 -167 -79.5 -500.5t-78.5 -500.5q-3 -13 -14.5 -23t-24.5 -10h-18q-13 0 -24.5 10t-14.5 21z" />
<glyph unicode="X" horiz-adv-x="727" d="M-2 51l248 633q-32 88 -115.5 306.5t-126.5 338.5q-8 20 2.5 35.5t32.5 15.5h24q9 0 21 -7.5t16 -16.5l199 -529l197 529q4 9 15.5 16.5t20.5 7.5h25q22 0 32.5 -15.5t2.5 -35.5l-238 -645q29 -75 115 -293.5t131 -339.5q3 -8 3 -15q0 -10 -7 -20q-11 -16 -33 -16h-22 q-10 0 -21 8t-16 17l-205 520l-205 -520q-5 -9 -16 -17t-21 -8h-22q-23 0 -34 16q-6 9 -6 19q0 8 3 16z" />
<glyph unicode="Y" horiz-adv-x="733" d="M6 1329q-3 8 -3 15q0 11 7 20q11 16 33 16h23q10 0 20.5 -7.5t15.5 -16.5l220 -578l217 578q5 9 16 16.5t20 7.5h25q22 0 32 -16q7 -9 7 -21q0 -7 -2 -14l-266 -696v-594q0 -17 -11 -28t-28 -11h-25q-16 0 -27.5 11t-11.5 28v594z" />
<glyph unicode="Z" horiz-adv-x="737" d="M0 28q-3 8 -3 18q0 23 15 56l480 1178h-416q-17 0 -28 11t-11 28v22q0 17 11 28t28 11h491q24 0 36 -8.5t12 -26t-3.5 -31t-11.5 -34.5l-479 -1180h457q15 0 26.5 -11t11.5 -28v-22q0 -17 -11.5 -28t-26.5 -11h-535q-34 0 -43 28z" />
<glyph unicode="[" horiz-adv-x="411" d="M41 39v1302q0 17 11 28t26 11h190q16 0 27.5 -11t11.5 -28v-20q0 -17 -11.5 -28t-27.5 -11h-129v-1184h129q16 0 27.5 -11t11.5 -28v-20q0 -17 -11.5 -28t-27.5 -11h-190q-15 0 -26 11t-11 28z" />
<glyph unicode="\" horiz-adv-x="829" d="M51 1329q-9 20 3 35.5t34 15.5h25q10 0 21 -8t16 -16l522 -1305q9 -20 -3 -35.5t-34 -15.5h-25q-10 0 -21 8t-16 17z" />
<glyph unicode="]" horiz-adv-x="411" d="M29 39v20q0 17 11 28t28 11h127v1184h-127q-17 0 -28 11t-11 28v20q0 17 11 28t28 11h188q17 0 28 -11t11 -28v-1302q0 -17 -11 -28t-28 -11h-188q-17 0 -28 11t-11 28z" />
<glyph unicode="^" horiz-adv-x="788" d="M-4 1243v23q0 8 6.5 18.5t13.5 13.5l142 91l149 88q8 5 19.5 5t19.5 -5l148 -88q27 -18 79 -50t66 -41q7 -3 13.5 -13t6.5 -19v-23q0 -25 -19.5 -35.5t-39.5 2.5l-272 166q-22 -13 -97 -57t-114 -70l-64 -39q-20 -13 -38.5 -2.5t-18.5 35.5z" />
<glyph unicode="_" horiz-adv-x="995" d="M39 -2q0 16 11 27.5t28 11.5h764q15 0 27 -12t12 -27v-21q0 -17 -11.5 -27.5t-27.5 -10.5h-764q-17 0 -28 10.5t-11 27.5v21z" />
<glyph unicode="`" horiz-adv-x="350" d="M17 1424q11 20 36 20h27q7 0 18.5 -6.5t16.5 -12.5l90 -147q12 -20 1.5 -39.5t-34.5 -19.5h-20q-6 0 -17.5 6t-15.5 12l-99 147q-14 20 -3 40z" />
<glyph unicode="a" horiz-adv-x="825" d="M4 47q29 130 152 653q80 349 149 650q1 12 12 21t23 9h20q12 0 24 -9t15 -21l295 -1303q1 -5 1 -10q-1 -13 -9 -23q-12 -14 -31 -14h-22q-12 0 -24 9.5t-15 21.5l-84 379h-320l-6 -25q-13 -54 -39.5 -174t-40.5 -180q-3 -11 -14 -21t-24 -10h-23q-19 0 -31 14 q-9 10 -9 23q0 5 1 10zM213 510h274l-137 610z" />
<glyph unicode="b" horiz-adv-x="708" d="M-4 39v1302q0 17 11 28t26 11h215q173 0 242 -86t69 -282q0 -226 -129 -314q154 -79 154 -329q0 -197 -60 -283t-215 -86h-276q-15 0 -26 11t-11 28zM96 100h197q110 0 149 60.5t39 208.5q0 146 -44.5 208t-160.5 62h-180v-539zM96 737h162q108 0 154.5 65.5t46.5 209.5 q0 143 -50.5 206.5t-166.5 63.5h-146v-545z" />
<glyph unicode="c" horiz-adv-x="790" d="M12 342v698q0 89 21 156t52.5 104t77 59.5t85.5 29t88 6.5t88 -6.5t86 -29t78 -59.5t53 -104t21 -156v-55q0 -15 -11 -26t-28 -11h-23q-17 0 -28 11t-11 26v62q0 116 -55 182.5t-170 66.5q-117 0 -170 -71.5t-53 -184.5v-698q0 -119 54.5 -187.5t168.5 -68.5 q115 0 170 67t55 175v69q0 15 11 26t28 11h23q17 0 28 -11t11 -26v-55q0 -356 -326 -356q-48 0 -88 7t-85.5 29.5t-77 59.5t-52.5 104t-21 156z" />
<glyph unicode="d" horiz-adv-x="757" d="M18 39v1302q0 17 11.5 28t27.5 11h248q174 -6 248 -106t74 -275v-618q-3 -181 -78 -281t-244 -100h-248q-16 0 -27.5 11t-11.5 28zM119 98h174q119 0 176 73t57 222v594q0 149 -57 222t-176 73h-174v-1184z" />
<glyph unicode="e" horiz-adv-x="671" d="M14 1341q0 17 11 28t28 11h443q16 0 27.5 -11t11.5 -28v-20q0 -17 -11.5 -28t-27.5 -11h-381v-545h237q15 0 27 -12t12 -27v-22q0 -15 -12 -26t-27 -11h-237v-541h381q16 0 27.5 -11t11.5 -28v-20q0 -17 -11.5 -28t-27.5 -11h-441q-17 0 -28 11t-11 28z" />
<glyph unicode="f" horiz-adv-x="645" d="M8 1341q0 17 11 28t28 11h442q16 0 27.5 -11t11.5 -28v-20q0 -17 -11.5 -28t-27.5 -11h-380v-545h241q15 0 27 -12t12 -27v-22q0 -15 -12 -26t-27 -11h-241v-600q0 -17 -11.5 -28t-27.5 -11h-21q-17 0 -28 11t-11 28z" />
<glyph unicode="g" d="M16 360v682q0 162 82.5 257.5t243.5 95.5q163 0 244.5 -98.5t81.5 -254.5v-38q0 -43 -41 -43h-17q-1 0 -10 1.5t-12.5 3.5t-9.5 8t-8.5 18.5t-2.5 31.5q0 70 -15.5 122t-38 80t-55 44.5t-59 21t-57.5 4.5q-32 0 -58.5 -4.5t-59 -21t-54.5 -44.5t-37.5 -80t-15.5 -122 v-664q0 -121 56 -197.5t169 -76.5q58 0 102.5 23.5t70.5 63t39 87t13 100.5v279h-194q-15 0 -26 11t-11 26v22q0 15 11 27t26 12h256q15 0 27 -12t12 -27v-338q0 -164 -83.5 -269t-242.5 -105q-84 0 -148 30t-102 82.5t-57 118.5t-19 143z" />
<glyph unicode="h" horiz-adv-x="722" d="M16 39v1302q0 17 11.5 28t27.5 11h23q17 0 28 -11t11 -28v-606h389v606q0 17 11.5 28t27.5 11h22q17 0 28 -11t11 -28v-1302q0 -17 -11 -28t-28 -11h-22q-16 0 -27.5 11t-11.5 28v598h-389v-598q0 -17 -11 -28t-28 -11h-23q-16 0 -27.5 11t-11.5 28z" />
<glyph unicode="i" horiz-adv-x="294" d="M29 39v1302q0 17 11.5 28t27.5 11h24q16 0 27.5 -11t11.5 -28v-1302q0 -17 -11.5 -28t-27.5 -11h-24q-16 0 -27.5 11t-11.5 28z" />
<glyph unicode="j" horiz-adv-x="737" d="M-4 334v53q0 15 11 27t26 12h24q15 0 27 -12t12 -27v-43q0 -75 18.5 -128.5t49.5 -80t62 -38t65 -11.5q57 0 97.5 25t60 68.5t28 89t8.5 100.5v981q0 15 12 27t27 12h25q15 0 26 -12t11 -27v-1000q0 -175 -73.5 -269.5t-221.5 -94.5q-150 0 -222.5 98t-72.5 250z" />
<glyph unicode="k" horiz-adv-x="733" d="M16 39v1304q0 17 11.5 28t27.5 11h25q15 0 26 -11t11 -28v-602q243 408 368 623q5 6 15.5 12t17.5 6h29q25 0 35 -18.5t-2 -38.5l-347 -586l187 -331h-2q22 -39 63 -110.5t74 -130t61 -110.5q6 -10 6 -20q0 -9 -6 -19q-12 -18 -34 -18h-29q-19 0 -33 18l-348 619l-55 -88 v-510q0 -17 -11 -28t-26 -11h-25q-16 0 -27.5 11t-11.5 28z" />
<glyph unicode="l" horiz-adv-x="630" d="M4 39v1302q0 17 11 28t28 11h23q15 0 26.5 -11t11.5 -28v-1243h371q17 0 28 -11t11 -28v-20q0 -17 -11 -28t-28 -11h-432q-17 0 -28 11t-11 28z" />
<glyph unicode="m" horiz-adv-x="884" d="M10 39v1302q0 17 11 28t28 11h21q10 0 21.5 -8.5t14.5 -19.5l283 -1100q35 137 131 515.5t150 584.5q1 10 12.5 19t22.5 9h22q16 0 27.5 -11t11.5 -28v-1302q0 -17 -11.5 -28t-27.5 -11h-22q-17 0 -28 11t-11 28v895q-183 -709 -230 -905q-3 -11 -14 -20t-23 -9h-22 q-12 0 -23 9t-14 20l-229 895v-885q0 -17 -11.5 -28t-27.5 -11h-23q-17 0 -28 11t-11 28z" />
<glyph unicode="n" horiz-adv-x="747" d="M16 39v1302q0 17 11 28t26 11h21q9 0 20.5 -8t16.5 -16l419 -1041v1026q0 17 11 28t28 11h23q16 0 27.5 -11t11.5 -28v-1302q0 -17 -11.5 -28t-27.5 -11h-21q-8 0 -19.5 8.5t-16.5 16.5l-123 307q-156 394 -295 737v-1030q0 -17 -11.5 -28t-27.5 -11h-25q-15 0 -26 11 t-11 28z" />
<glyph unicode="o" d="M16 336v711q3 163 81.5 255.5t240.5 92.5q166 0 247 -95t81 -253v-711q0 -89 -21.5 -155.5t-53 -102.5t-78 -58t-86.5 -28t-89 -6q-32 0 -60.5 3t-62 12t-61 24.5t-54 42.5t-44.5 62.5t-29 88t-11 117.5zM117 352q0 -131 52.5 -198.5t168.5 -67.5q121 0 174 67.5 t53 192.5v680q0 265 -225 268q-223 -8 -223 -266v-676z" />
<glyph unicode="p" horiz-adv-x="698" d="M16 39v1302q0 17 11.5 28t27.5 11h236q72 -2 124.5 -20.5t85.5 -49t52.5 -77.5t27 -99t7.5 -122q0 -184 -67 -279.5t-230 -95.5h-174v-598q0 -17 -11 -28t-26 -11h-25q-16 0 -27.5 11t-11.5 28zM117 737h137q59 0 102 13.5t68 36t39.5 59.5t19 75t4.5 91 q0 145 -49.5 206.5t-173.5 61.5h-147v-543z" />
<glyph unicode="q" horiz-adv-x="815" d="M8 362v705q0 154 80 241t246 87q315 0 321 -328v-705q0 -173 -65 -270q34 -40 35 -41l53 -63q10 -14 10 -27q0 -10 -6 -19q-15 -19 -41.5 -19t-46.5 16l-78 94q-83 -47 -182 -47q-81 0 -144 29.5t-101.5 81.5t-58.5 118.5t-22 146.5zM109 381q0 -76 20.5 -139 t73.5 -108.5t133 -47.5q66 0 115 25q-13 15 -37 45t-37 45q-24 27 2 53q25 24 58 14q14 -5 24 -16l63 -74q31 63 31 189v694q0 235 -221 235q-118 0 -170 -59t-55 -178v-678z" />
<glyph unicode="r" horiz-adv-x="704" d="M-4 39v1302q0 17 11 28t26 11h241q169 0 240.5 -89t71.5 -285q0 -238 -115 -316q107 -67 107 -264v-387q0 -17 -11.5 -28t-27.5 -11h-23q-17 0 -28 11t-11 28v381q0 116 -45 166.5t-160 50.5h-176v-598q0 -17 -11.5 -28t-27.5 -11h-24q-15 0 -26 11t-11 28zM96 737h152 q135 0 185 61.5t50 207.5q0 65 -8 110t-30 84.5t-66 59.5t-111 20h-172v-543z" />
<glyph unicode="s" horiz-adv-x="763" d="M16 362v33q0 15 11 26t26 11h25q15 0 27 -11t12 -26v-33q0 -276 207 -276q104 0 158.5 57.5t54.5 171.5q0 40 -13.5 79.5t-32 69t-50.5 64.5t-55.5 56t-61.5 54t-54 48q-39 34 -57.5 50t-60 60.5t-63.5 80.5t-41 90t-19 108q0 147 85 234.5t218 87.5q152 0 222.5 -90 t70.5 -277v-24q0 -15 -12 -27t-27 -12h-23q-17 0 -28 11.5t-11 27.5v24q0 139 -44.5 202.5t-145.5 63.5q-95 0 -150 -63.5t-55 -169.5q0 -38 18 -79.5t38.5 -71.5t61 -70t61.5 -58t63 -53l3.5 -3.5t4 -3t4.5 -3.5q31 -25 61 -53.5t67 -71t64 -84.5t45.5 -94.5t18.5 -100.5 q0 -168 -82 -248.5t-233 -80.5q-153 0 -230.5 89.5t-77.5 284.5z" />
<glyph unicode="t" horiz-adv-x="778" d="M6 1321v22q0 17 11 28t28 11h586q16 0 27.5 -11t11.5 -28v-22q0 -17 -11.5 -28t-27.5 -11h-244v-1241q0 -17 -11.5 -28t-27.5 -11h-22q-17 0 -28 11t-11 28v1241h-242q-17 0 -28 11t-11 28z" />
<glyph unicode="u" horiz-adv-x="802" d="M8 1343q0 17 11 28t28 11h23q16 0 27.5 -11t11.5 -28v-995q0 -64 16 -113t39.5 -76.5t56 -44.5t59 -22.5t54.5 -5.5t55.5 5.5t59.5 22.5t56 44.5t40 76.5t16 113v995q0 17 11 28t28 11h23q16 0 27.5 -11t11.5 -28v-1007q0 -83 -22 -147t-56 -101t-79.5 -60.5t-86.5 -31.5 t-84 -8q-42 0 -82.5 8t-86 31.5t-78.5 60.5t-55 101t-22 147z" />
<glyph unicode="v" horiz-adv-x="817" d="M4 1333q-2 6 -2 12q0 13 8 23q11 14 31 14h25q12 0 22 -8.5t12 -19.5l252 -1094q41 181 124 546t124 546q3 11 14.5 20.5t24.5 9.5h23q20 0 31 -14q8 -10 8 -23q0 -5 -1 -10l-297 -1302q-3 -12 -14.5 -21.5t-23.5 -9.5h-23q-12 0 -22.5 9t-12.5 20z" />
<glyph unicode="w" horiz-adv-x="1173" d="M4 1333q-1 4 -1 8q-1 15 9 25q12 14 31 14h25q12 0 23.5 -9t12.5 -21l230 -1041l162 1039q1 13 12.5 22.5t23.5 9.5h21q12 0 24 -9.5t15 -22.5l162 -1035q38 182 113 530.5t108 506.5q3 12 14.5 21t24.5 9h22q20 0 32 -14q9 -10 8 -23q0 -5 -1 -10l-280 -1302 q-3 -12 -14.5 -21.5t-24.5 -9.5h-19q-13 0 -24.5 10t-14.5 23l-155 1001q-30 -167 -79.5 -500.5t-78.5 -500.5q-3 -13 -14.5 -23t-24.5 -10h-18q-13 0 -24.5 10t-14.5 21z" />
<glyph unicode="x" horiz-adv-x="727" d="M-2 51l248 633q-32 88 -115.5 306.5t-126.5 338.5q-8 20 2.5 35.5t32.5 15.5h24q9 0 21 -7.5t16 -16.5l199 -529l197 529q4 9 15.5 16.5t20.5 7.5h25q22 0 32.5 -15.5t2.5 -35.5l-238 -645q29 -75 115 -293.5t131 -339.5q3 -8 3 -15q0 -10 -7 -20q-11 -16 -33 -16h-22 q-10 0 -21 8t-16 17l-205 520l-205 -520q-5 -9 -16 -17t-21 -8h-22q-23 0 -34 16q-6 9 -6 19q0 8 3 16z" />
<glyph unicode="y" horiz-adv-x="733" d="M6 1329q-3 8 -3 15q0 11 7 20q11 16 33 16h23q10 0 20.5 -7.5t15.5 -16.5l220 -578l217 578q5 9 16 16.5t20 7.5h25q22 0 32 -16q7 -9 7 -21q0 -7 -2 -14l-266 -696v-594q0 -17 -11 -28t-28 -11h-25q-16 0 -27.5 11t-11.5 28v594z" />
<glyph unicode="z" horiz-adv-x="737" d="M0 28q-3 8 -3 18q0 23 15 56l480 1178h-416q-17 0 -28 11t-11 28v22q0 17 11 28t28 11h491q24 0 36 -8.5t12 -26t-3.5 -31t-11.5 -34.5l-479 -1180h457q15 0 26.5 -11t11.5 -28v-22q0 -17 -11.5 -28t-26.5 -11h-535q-34 0 -43 28z" />
<glyph unicode="{" horiz-adv-x="452" d="M8 643v45q0 24 23 35q16 8 31.5 42t15.5 85v293q0 58 18.5 103t45 69.5t60 40t58.5 20t47 4.5q16 0 27.5 -11t11.5 -28v-22q0 -17 -11.5 -28t-27.5 -11q-14 0 -31.5 -4.5t-41 -17t-39 -42t-15.5 -71.5v-275q0 -144 -59 -200q33 -27 46 -78.5t13 -173.5v-156q0 -50 14 -85 t36.5 -50t40.5 -21t36 -6q16 0 27.5 -11t11.5 -28v-22q0 -17 -11.5 -28t-27.5 -11q-19 0 -39.5 2.5t-57 17.5t-63.5 40t-48 77t-21 123v172q0 95 -7.5 126.5t-43.5 51.5q-7 4 -13 14.5t-6 18.5z" />
<glyph unicode="|" horiz-adv-x="233" d="M39 39v1317q0 15 12 27t27 12h22q15 0 26 -12t11 -27v-1317q0 -17 -11 -28t-26 -11h-22q-16 0 -27.5 11t-11.5 28z" />
<glyph unicode="}" horiz-adv-x="460" d="M31 39v22q0 17 11.5 28t27.5 11q18 0 36 6t40.5 21t36.5 50t14 85v156q0 124 13 175t48 77q-61 68 -61 200v275q0 42 -15.5 71.5t-39 42t-41 17t-31.5 4.5q-16 0 -27.5 11t-11.5 28v22q0 17 11.5 28t27.5 11q22 0 47 -4.5t58 -20t59 -40t44.5 -69.5t18.5 -103v-293 q0 -51 16.5 -85t32.5 -42q23 -11 23 -35v-45q0 -8 -6 -18.5t-13 -14.5q-36 -21 -44.5 -53t-8.5 -125v-172q0 -71 -20.5 -123t-47.5 -77t-63 -40t-56.5 -17.5t-39.5 -2.5q-16 0 -27.5 11t-11.5 28z" />
<glyph unicode="~" horiz-adv-x="665" d="M19 786q3 14 18 23q82 57 139 57q60 0 160 -47q5 -2 20 -8.5t20.5 -9t18 -7.5t19.5 -7t17 -3.5t18 -1.5q17 0 47 15q23 10 46 -10.5t23.5 -45.5t-26.5 -39q-64 -22 -93 -22q-65 0 -153 47q-80 37 -113 37q-39 0 -82 -35q-23 -21 -56 5q-29 25 -23 52z" />
<glyph unicode="&#xa1;" horiz-adv-x="241" d="M20 41v1106q0 17 11 28t28 11h23q16 0 27.5 -11t11.5 -28v-1106q0 -17 -11.5 -28t-27.5 -11h-23q-17 0 -28 11t-11 28zM20 1298v45q0 17 11 28t28 11h23q16 0 27.5 -11t11.5 -28v-45q0 -17 -11.5 -27.5t-27.5 -10.5h-23q-17 0 -28 10.5t-11 27.5z" />
<glyph unicode="&#xa8;" horiz-adv-x="327" d="M-2 1358v47q0 17 11 28t28 11h22q16 0 27.5 -11t11.5 -28v-47q0 -15 -12 -26t-27 -11h-22q-17 0 -28 11t-11 26zM199 1358v47q0 17 11.5 28t27.5 11h22q17 0 28 -11t11 -28v-47q0 -15 -11 -26t-28 -11h-22q-15 0 -27 11t-12 26z" />
<glyph unicode="&#xa9;" horiz-adv-x="1548" d="M25 696q0 187 92 346t250.5 251.5t345.5 92.5q188 0 347.5 -92.5t252 -251.5t92.5 -346t-92.5 -345.5t-252 -251.5t-347.5 -93q-187 0 -345.5 93t-250.5 251.5t-92 345.5zM121 696q0 -122 46.5 -233t125.5 -191t188.5 -127t231.5 -47t233 47t191 127t127 191t47 233 q0 121 -47 231t-127 189.5t-191 126.5t-233 47t-231.5 -47t-188.5 -126.5t-125.5 -189.5t-46.5 -231zM487 473v436q0 75 20.5 127.5t55.5 78t70 36t76 10.5q40 0 75.5 -10.5t70.5 -36t56 -78t21 -127.5v-20q0 -15 -12 -27t-27 -12h-19q-17 0 -27.5 11.5t-10.5 27.5v20 q0 67 -31.5 111.5t-95.5 44.5q-63 0 -93 -45t-30 -111v-436q0 -69 30.5 -113.5t92.5 -44.5q63 0 95 46.5t32 111.5v19q0 16 10.5 27t27.5 11h19q15 0 27 -11.5t12 -26.5v-19q0 -61 -14.5 -108t-36.5 -74t-53 -44t-59.5 -22.5t-59.5 -5.5q-41 0 -76 10.5t-70 36t-55.5 78.5 t-20.5 129z" />
<glyph unicode="&#xab;" horiz-adv-x="1005" d="M46 690.5q0 13.5 7 22.5l496 635q25 32 65 32h11q26 0 36.5 -20.5t-6.5 -40.5l-495 -629q94 -121 268 -341.5t227 -287.5q17 -20 6.5 -40.5t-36.5 -20.5h-15q-29 0 -45 16l-512 652q-7 9 -7 22.5zM326 690.5q0 13.5 8 22.5l495 635q25 32 66 32h10q27 0 37.5 -20.5 t-6.5 -40.5l-496 -629q92 -119 263 -334.5t233 -294.5q17 -20 6.5 -40.5t-37.5 -20.5h-14q-29 0 -45 16l-512 652q-8 9 -8 22.5z" />
<glyph unicode="&#xad;" horiz-adv-x="663" d="M23 674v22q0 16 10.5 27.5t27.5 11.5h445q15 0 27 -12t12 -27v-22q0 -17 -11.5 -28t-27.5 -11h-445q-17 0 -27.5 11t-10.5 28z" />
<glyph unicode="&#xae;" horiz-adv-x="1548" d="M25 696q0 187 92 346t250.5 251.5t345.5 92.5q188 0 347.5 -92.5t252 -251.5t92.5 -346t-92.5 -345.5t-252 -251.5t-347.5 -93q-187 0 -345.5 93t-250.5 251.5t-92 345.5zM121 696q0 -122 46.5 -233t125.5 -191t188.5 -127t231.5 -47t233 47t191 127t127 191t47 233 q0 121 -47 231t-127 189.5t-191 126.5t-233 47t-231.5 -47t-188.5 -126.5t-125.5 -189.5t-46.5 -231zM549 322v796q0 16 11 27.5t28 11.5h133q103 0 145.5 -53.5t42.5 -171.5q0 -138 -63 -209q61 -52 61 -127v-274q0 -17 -11.5 -28t-27.5 -11h-18q-16 0 -27.5 11t-11.5 28 v266q0 48 -23 67t-77 19h-70v-352q0 -17 -11 -28t-28 -11h-14q-17 0 -28 11t-11 28zM641 766h70q106 0 106 166q0 70 -24 99.5t-82 29.5h-70v-295z" />
<glyph unicode="&#xb0;" horiz-adv-x="485" d="M14 1247q0 74 51 126t123 52q75 0 127 -52t52 -126t-52 -126t-127 -52q-72 0 -123 52t-51 126zM115 1249q0 -34 21 -56t52 -22q34 0 57 22t23 56q0 32 -23 54t-57 22q-31 0 -52 -22t-21 -54z" />
<glyph unicode="&#xb1;" horiz-adv-x="718" d="M18 831v25q0 17 11.5 28t27.5 11h193v211q0 15 12 27t27 12h24q15 0 26 -12t11 -27v-211h195q16 0 27.5 -11t11.5 -28v-25q0 -15 -12 -26.5t-27 -11.5h-195v-213q0 -15 -11 -27t-26 -12h-24q-15 0 -27 12t-12 27v213h-193q-15 0 -27 11.5t-12 26.5zM59 414h490v24h-490 v-24z" />
<glyph unicode="&#xb4;" horiz-adv-x="454" d="M166 1278l45 78l39 69q14 19 35 19h20q25 0 36 -20t-3 -40l-94 -145q-14 -18 -33 -18h-10q-23 0 -34.5 18.5t-0.5 38.5z" />
<glyph unicode="&#xb8;" horiz-adv-x="387" d="M-5.5 -228q0.5 11 5.5 21t16.5 15t24.5 2q41 -11 65 0q25 12 28.5 32t-17.5 34.5t-58 10.5q-21 -2 -33.5 10.5t-9.5 32.5q2 25 5.5 44.5t3.5 23.5q7 12 26 19.5t36 6t17 -13.5q0 -35 -4 -45q20 2 33 2q46 0 77 -25t30 -77q-3 -75 -65.5 -117t-147.5 -14q-16 6 -24.5 16.5 t-8 21.5z" />
<glyph unicode="&#xba;" horiz-adv-x="485" d="M14 1235q0 73 51 124.5t125 51.5q71 0 124 -51.5t53 -124.5q0 -71 -53 -122.5t-124 -51.5q-73 0 -124.5 51t-51.5 123zM113 1237q0 -33 21 -54.5t56 -21.5q32 0 55 22t23 54t-23 55t-55 23q-34 0 -55.5 -22.5t-21.5 -55.5z" />
<glyph unicode="&#xbb;" horiz-adv-x="1052" d="M59.5 20.5q-10.5 20.5 6.5 40.5q53 67 227 287.5t268 341.5l-495 629q-17 20 -6.5 40.5t36.5 20.5h10q41 0 66 -32l496 -635q8 -9 8 -22.5t-8 -22.5l-512 -652q-16 -16 -45 -16h-15q-26 0 -36.5 20.5zM339.5 20.5q-10.5 20.5 6.5 40.5q62 79 233 294.5t263 334.5 l-496 629q-17 20 -6.5 40.5t37.5 20.5h10q41 0 66 -32l495 -635q8 -9 8 -22.5t-8 -22.5l-512 -652q-16 -16 -45 -16h-14q-27 0 -37.5 20.5z" />
<glyph unicode="&#xbf;" horiz-adv-x="718" d="M27 340q0 59 12 114t26 90.5t42.5 79.5t43 62.5t46.5 56.5h-2q53 69 68.5 153.5t15.5 246.5q0 17 11.5 28t26.5 11h23q17 0 28 -11t11 -28v-23q0 -74 -2 -114.5t-10 -103t-29.5 -113.5t-56.5 -97l-23 -28q-30 -40 -46.5 -64.5t-39.5 -66.5t-34 -87.5t-11 -95.5 q0 -130 46 -195t144 -65q68 0 113 43.5t63.5 110.5t18.5 155q0 17 11 28t26 11h24q16 0 27.5 -11t11.5 -28q0 -187 -76.5 -298t-220.5 -111q-145 0 -216.5 92t-71.5 258zM279 1296v47q0 17 11.5 28t26.5 11h23q17 0 28 -11t11 -28v-47q0 -15 -11 -25.5t-28 -10.5h-23 q-15 0 -26.5 10.5t-11.5 25.5z" />
<glyph unicode="&#xc0;" horiz-adv-x="854" d="M14 47q29 130 152 653q80 349 149 650q1 12 12 21t23 9h21q12 0 24 -9t15 -21l295 -1303q4 -20 -7.5 -33.5t-31.5 -13.5h-23q-12 0 -24 9.5t-15 21.5l-84 379h-319l-6 -25q-13 -54 -39.5 -174t-40.5 -180q-3 -11 -14.5 -21t-24.5 -10h-23q-19 0 -31 13.5t-8 33.5z M223 510h275l-138 610zM269.5 1694.5q10.5 19.5 35.5 19.5h27q7 0 18.5 -6t16.5 -12l90 -148q12 -20 1.5 -39.5t-34.5 -19.5h-21q-6 0 -17 6t-15 12l-99 148q-13 20 -2.5 39.5z" />
<glyph unicode="&#xc1;" horiz-adv-x="854" d="M14 47q29 130 152 653q80 349 149 650q1 12 12 21t23 9h21q12 0 24 -9t15 -21l295 -1303q4 -20 -7.5 -33.5t-31.5 -13.5h-23q-12 0 -24 9.5t-15 21.5l-84 379h-319l-6 -25q-13 -54 -39.5 -174t-40.5 -180q-3 -11 -14.5 -21t-24.5 -10h-23q-19 0 -31 13.5t-8 33.5z M223 510h275l-138 610zM272 1548l45 78l39 70q5 6 15.5 12t19.5 6h21q25 0 35.5 -19.5t-3.5 -39.5l-94 -146q-14 -18 -33 -18h-10q-23 0 -34.5 18.5t-0.5 38.5z" />
<glyph unicode="&#xc2;" horiz-adv-x="854" d="M14 47q29 130 152 653q80 349 149 650q1 12 12 21t23 9h21q12 0 24 -9t15 -21l295 -1303q4 -20 -7.5 -33.5t-31.5 -13.5h-23q-12 0 -24 9.5t-15 21.5l-84 379h-319l-6 -25q-13 -54 -39.5 -174t-40.5 -180q-3 -11 -14.5 -21t-24.5 -10h-23q-19 0 -31 13.5t-8 33.5z M217 1569q46 96 82 166q20 36 61.5 36t59.5 -34l8 -17q9 -17 20.5 -39t23.5 -45.5t21 -42t11 -22.5q9 -25 -5.5 -42t-36 -15.5t-36.5 16.5q-8 10 -24.5 36t-29.5 47l-12 21q-55 -92 -63 -102q-19 -20 -42 -21t-37 17t-1 41zM223 510h275l-138 610z" />
<glyph unicode="&#xc3;" horiz-adv-x="854" d="M14 47q29 130 152 653q80 349 149 650q1 12 12 21t23 9h21q12 0 24 -9t15 -21l295 -1303q4 -20 -7.5 -33.5t-31.5 -13.5h-23q-12 0 -24 9.5t-15 21.5l-84 379h-319l-6 -25q-13 -54 -39.5 -174t-40.5 -180q-3 -11 -14.5 -21t-24.5 -10h-23q-19 0 -31 13.5t-8 33.5z M88 1597q3 14 18 23q82 57 140 57q60 0 160 -47q4 -2 23 -10.5t25 -11t20 -7.5t24 -6.5t20 -1.5q17 0 47 15q23 10 46 -10.5t23.5 -45.5t-26.5 -39q-64 -22 -92 -22q-66 0 -154 47q-80 37 -112 37q-39 0 -82 -35q-23 -21 -56 5q-30 25 -24 52zM223 510h275l-138 610z" />
<glyph unicode="&#xc4;" horiz-adv-x="854" d="M14 47q29 130 152 653q80 349 149 650q1 12 12 21t23 9h21q12 0 24 -9t15 -21l295 -1303q4 -20 -7.5 -33.5t-31.5 -13.5h-23q-12 0 -24 9.5t-15 21.5l-84 379h-319l-6 -25q-13 -54 -39.5 -174t-40.5 -180q-3 -11 -14.5 -21t-24.5 -10h-23q-19 0 -31 13.5t-8 33.5z M213 1528v47q0 17 11 28t28 11h22q16 0 27.5 -11t11.5 -28v-47q0 -15 -12 -26t-27 -11h-22q-17 0 -28 11t-11 26zM223 510h275l-138 610zM414 1528v47q0 17 11.5 28t27.5 11h22q17 0 28 -11t11 -28v-47q0 -15 -11 -26t-28 -11h-22q-15 0 -27 11t-12 26z" />
<glyph unicode="&#xc5;" horiz-adv-x="854" d="M14 47q29 130 152 653q80 349 149 650q1 12 12 21t23 9h21q12 0 24 -9t15 -21l295 -1303q4 -20 -7.5 -33.5t-31.5 -13.5h-23q-12 0 -24 9.5t-15 21.5l-84 379h-319l-6 -25q-13 -54 -39.5 -174t-40.5 -180q-3 -11 -14.5 -21t-24.5 -10h-23q-19 0 -31 13.5t-8 33.5z M197 1591q0 69 47 118.5t116 49.5t118.5 -49.5t49.5 -118.5q0 -70 -49 -118t-119 -48q-69 0 -116 48t-47 118zM223 510h275l-138 610zM297 1593q0 -29 17 -47t46 -18q30 0 49 17t19 46t-19.5 48.5t-48.5 19.5t-46 -18t-17 -48z" />
<glyph unicode="&#xc6;" horiz-adv-x="1175" d="M12 51l492 1305q4 9 16 16.5t21 7.5h465q15 0 26.5 -11t11.5 -28v-20q0 -17 -11.5 -28t-26.5 -11h-381v-541h221q17 0 28 -11.5t11 -27.5v-22q0 -16 -11 -27.5t-28 -11.5h-221v-543h381q15 0 26.5 -11t11.5 -28v-20q0 -17 -11.5 -28t-26.5 -11h-443q-17 0 -28 11t-11 28 v602h-166l-243 -616q-5 -9 -16.5 -17t-20.5 -8h-29q-23 0 -34 15.5t-3 35.5zM383 741h141v353z" />
<glyph unicode="&#xc7;" horiz-adv-x="790" d="M23 342v698q0 89 21 156t52 104t76.5 59.5t85.5 29t88 6.5t88 -6.5t86 -29t78 -59.5t53 -104t21 -156v-55q0 -15 -11 -26t-28 -11h-23q-17 0 -28 11t-11 26v62q0 116 -55 182.5t-170 66.5q-117 0 -170 -71.5t-53 -184.5v-698q0 -119 54.5 -187.5t168.5 -68.5 q115 0 170 67t55 175v69q0 15 11 26t28 11h23q17 0 28 -11t11 -26v-55q0 -356 -326 -356q-47 0 -87.5 7t-86 29.5t-76.5 59.5t-52 104t-21 156zM288 -234q-5 21 9 36t37 10q41 -11 65 0q25 12 28.5 32t-17.5 34.5t-58 10.5q-21 -2 -33.5 10.5t-9.5 32.5q2 26 5 46.5t3 21.5 q7 12 26.5 19.5t36.5 6t17 -13.5q0 -35 -4 -45q20 2 33 2q46 0 76.5 -25t29.5 -77q-3 -75 -65.5 -117t-147.5 -14q-26 9 -31 30z" />
<glyph unicode="&#xc8;" horiz-adv-x="671" d="M25 1341q0 17 10.5 28t27.5 11h443q16 0 27.5 -11t11.5 -28v-20q0 -17 -11.5 -28t-27.5 -11h-381v-545h237q15 0 27 -12t12 -27v-22q0 -15 -12 -26t-27 -11h-237v-541h381q16 0 27.5 -11t11.5 -28v-20q0 -17 -11.5 -28t-27.5 -11h-440q-17 0 -28 11t-11 28zM193.5 1694.5 q10.5 19.5 35.5 19.5h27q7 0 18.5 -6t16.5 -12l90 -148q12 -20 1.5 -39.5t-34.5 -19.5h-20q-6 0 -17.5 6t-15.5 12l-98 148q-14 20 -3.5 39.5z" />
<glyph unicode="&#xc9;" horiz-adv-x="671" d="M25 1341q0 17 10.5 28t27.5 11h443q16 0 27.5 -11t11.5 -28v-20q0 -17 -11.5 -28t-27.5 -11h-381v-545h237q15 0 27 -12t12 -27v-22q0 -15 -12 -26t-27 -11h-237v-541h381q16 0 27.5 -11t11.5 -28v-20q0 -17 -11.5 -28t-27.5 -11h-440q-17 0 -28 11t-11 28zM201 1548 l45 78l39 70q13 18 34 18h21q25 0 35.5 -19.5t-2.5 -39.5l-94 -146q-5 -6 -15.5 -12t-17.5 -6h-10q-23 0 -34.5 18.5t-0.5 38.5z" />
<glyph unicode="&#xca;" horiz-adv-x="671" d="M25 1341q0 17 10.5 28t27.5 11h443q16 0 27.5 -11t11.5 -28v-20q0 -17 -11.5 -28t-27.5 -11h-381v-545h237q15 0 27 -12t12 -27v-22q0 -15 -12 -26t-27 -11h-237v-541h381q16 0 27.5 -11t11.5 -28v-20q0 -17 -11.5 -28t-27.5 -11h-440q-17 0 -28 11t-11 28zM141 1571 q46 96 82 166q20 36 61.5 36t59.5 -34l8 -17q9 -17 20.5 -39t23.5 -45.5t21 -42t11 -22.5q9 -25 -5.5 -42t-36 -15.5t-36.5 16.5q-8 10 -24.5 36t-28.5 47l-12 21q-56 -92 -64 -102q-19 -20 -42 -21t-37 17t-1 41z" />
<glyph unicode="&#xcb;" horiz-adv-x="671" d="M25 1341q0 17 10.5 28t27.5 11h443q16 0 27.5 -11t11.5 -28v-20q0 -17 -11.5 -28t-27.5 -11h-381v-545h237q15 0 27 -12t12 -27v-22q0 -15 -12 -26t-27 -11h-237v-541h381q16 0 27.5 -11t11.5 -28v-20q0 -17 -11.5 -28t-27.5 -11h-440q-17 0 -28 11t-11 28zM137 1528v47 q0 17 11 28t28 11h23q16 0 27.5 -11t11.5 -28v-47q0 -15 -12 -26t-27 -11h-23q-17 0 -28 11t-11 26zM338 1528v47q0 17 11.5 28t27.5 11h22q17 0 28 -11t11 -28v-47q0 -15 -11 -26t-28 -11h-22q-15 0 -27 11t-12 26z" />
<glyph unicode="&#xcc;" horiz-adv-x="274" d="M-15.5 1694.5q10.5 19.5 35.5 19.5h27q7 0 18.5 -6t16.5 -12l90 -148q12 -20 1.5 -39.5t-34.5 -19.5h-20q-6 0 -17.5 6t-15.5 12l-98 148q-14 20 -3.5 39.5zM39 39q0 -17 11.5 -28t27.5 -11h24q16 0 27.5 11t11.5 28v1302q0 17 -11.5 28t-27.5 11h-24q-16 0 -27.5 -11 t-11.5 -28v-1302z" />
<glyph unicode="&#xcd;" horiz-adv-x="274" d="M-10 1548l45 78l39 70q14 18 35 18h20q25 0 35.5 -19.5t-2.5 -39.5l-94 -146q-5 -6 -15.5 -12t-17.5 -6h-10q-23 0 -34.5 18.5t-0.5 38.5zM39 39v1302q0 17 11.5 28t27.5 11h24q16 0 27.5 -11t11.5 -28v-1302q0 -17 -11.5 -28t-27.5 -11h-24q-16 0 -27.5 11t-11.5 28z " />
<glyph unicode="&#xce;" horiz-adv-x="274" d="M-68 1569q46 96 82 166q20 36 61.5 36t59.5 -34l9 -17q8 -17 19.5 -39t23.5 -45.5t21 -42t11 -22.5q9 -25 -5.5 -42t-36 -15.5t-36.5 16.5q-8 10 -24 36t-29 47l-12 21q-56 -92 -64 -102q-19 -20 -42 -21t-37 17t-1 41zM39 39v1302q0 17 11.5 28t27.5 11h24 q16 0 27.5 -11t11.5 -28v-1302q0 -17 -11.5 -28t-27.5 -11h-24q-16 0 -27.5 11t-11.5 28z" />
<glyph unicode="&#xcf;" horiz-adv-x="274" d="M-70 1526v47q0 17 11 28t28 11h23q16 0 27.5 -11t11.5 -28v-47q0 -15 -12 -26t-27 -11h-23q-17 0 -28 11t-11 26zM39 39v1302q0 17 11.5 28t27.5 11h24q16 0 27.5 -11t11.5 -28v-1302q0 -17 -11.5 -28t-27.5 -11h-24q-16 0 -27.5 11t-11.5 28zM131 1526v47q0 17 11.5 28 t27.5 11h23q17 0 27.5 -11t10.5 -28v-47q0 -15 -10.5 -26t-27.5 -11h-23q-15 0 -27 11t-12 26z" />
<glyph unicode="&#xd0;" horiz-adv-x="778" d="M-215 678v22q0 15 12 27t27 12h194v602q0 17 11 28t28 11h240q328 -11 328 -381v-618q-7 -381 -328 -381h-240q-17 0 -28 11t-11 28v600h-194q-15 0 -27 12t-12 27zM119 98h164q241 0 241 295v594q0 295 -241 295h-164v-543h149q17 0 28 -11.5t11 -27.5v-22 q0 -16 -11 -27.5t-28 -11.5h-149v-541z" />
<glyph unicode="&#xd1;" horiz-adv-x="788" d="M27 39v1302q0 17 10.5 28t25.5 11h21q9 0 20.5 -8t16.5 -16l420 -1041v1026q0 17 11 28t28 11h22q16 0 27.5 -11t11.5 -28v-1302q0 -17 -11.5 -28t-27.5 -11h-20q-8 0 -20 8.5t-17 16.5l-123 307q-156 394 -295 737v-1030q0 -17 -11.5 -28t-27.5 -11h-25q-15 0 -25.5 11 t-10.5 28zM60 1595q3 14 18 23q82 57 139 57q60 0 160 -47q4 -2 23 -10.5t25 -11t20 -7.5t24 -6.5t20 -1.5q18 0 48 15q23 10 46 -10.5t23.5 -45.5t-26.5 -39q-64 -22 -93 -22q-65 0 -153 47q-80 37 -113 37q-39 0 -82 -35q-23 -21 -56 5q-29 25 -23 52z" />
<glyph unicode="&#xd2;" d="M27 336q0 -89 21 -155.5t52.5 -102.5t77 -58t84.5 -28t86 -6q49 0 89 6t86.5 28t78 58t53 102.5t21.5 155.5v711q0 158 -81 253t-247 95q-162 0 -240 -92.5t-81 -255.5v-711zM127 352v676q0 258 223 266q225 -3 225 -268v-680q0 -125 -53 -192.5t-174 -67.5 q-116 0 -168.5 67.5t-52.5 198.5zM259.5 1696.5q10.5 19.5 35.5 19.5h27q7 0 18 -6t16 -12l90 -148q12 -20 2 -39.5t-34 -19.5h-21q-6 0 -17.5 6t-15.5 12l-98 148q-13 20 -2.5 39.5z" />
<glyph unicode="&#xd3;" d="M27 336v711q3 163 81 255.5t240 92.5q166 0 247 -95t81 -253v-711q0 -89 -21.5 -155.5t-53 -102.5t-78 -58t-86.5 -28t-89 -6q-47 0 -86 6t-84.5 28t-77 58t-52.5 102.5t-21 155.5zM127 352q0 -131 52.5 -198.5t168.5 -67.5q121 0 174 67.5t53 192.5v680q0 265 -225 268 q-223 -8 -223 -266v-676zM262 1546l45 78l39 70q5 6 15.5 12t19.5 6h20q25 0 35.5 -19.5t-2.5 -39.5l-94 -146q-14 -18 -33 -18h-10q-23 0 -34.5 18.5t-0.5 38.5z" />
<glyph unicode="&#xd4;" d="M27 336v711q3 163 81 255.5t240 92.5q166 0 247 -95t81 -253v-711q0 -89 -21.5 -155.5t-53 -102.5t-78 -58t-86.5 -28t-89 -6q-47 0 -86 6t-84.5 28t-77 58t-52.5 102.5t-21 155.5zM127 352q0 -131 52.5 -198.5t168.5 -67.5q121 0 174 67.5t53 192.5v680q0 265 -225 268 q-223 -8 -223 -266v-676zM205 1571q46 96 82 166q20 36 61.5 36t59.5 -34l8 -17q9 -17 20.5 -39t23.5 -45.5t21 -42t11 -22.5q9 -25 -5.5 -42t-36 -15.5t-36.5 16.5q-8 10 -24.5 36t-29.5 47l-12 21q-55 -92 -63 -102q-19 -20 -42 -21t-37 17t-1 41z" />
<glyph unicode="&#xd5;" d="M27 336v711q3 163 81 255.5t240 92.5q166 0 247 -95t81 -253v-711q0 -89 -21.5 -155.5t-53 -102.5t-78 -58t-86.5 -28t-89 -6q-47 0 -86 6t-84.5 28t-77 58t-52.5 102.5t-21 155.5zM76 1595q3 14 18 23q82 57 139 57q60 0 160 -47q5 -2 20 -8.5t20.5 -9t18 -7.5t19.5 -7 t17 -3.5t18 -1.5q17 0 47 15q23 10 46 -10.5t23.5 -45.5t-26.5 -39q-64 -22 -92 -22q-66 0 -154 47q-80 37 -112 37q-39 0 -82 -35q-23 -21 -56 5q-30 25 -24 52zM127 352q0 -131 52.5 -198.5t168.5 -67.5q121 0 174 67.5t53 192.5v680q0 265 -225 268q-223 -8 -223 -266 v-676z" />
<glyph unicode="&#xd6;" d="M27 336v711q3 163 81 255.5t240 92.5q166 0 247 -95t81 -253v-711q0 -89 -21.5 -155.5t-53 -102.5t-78 -58t-86.5 -28t-89 -6q-47 0 -86 6t-84.5 28t-77 58t-52.5 102.5t-21 155.5zM127 352q0 -131 52.5 -198.5t168.5 -67.5q121 0 174 67.5t53 192.5v680q0 265 -225 268 q-223 -8 -223 -266v-676zM201 1526v47q0 17 11 28t28 11h22q16 0 27.5 -11t11.5 -28v-47q0 -15 -12 -26t-27 -11h-22q-17 0 -28 11t-11 26zM401 1526v47q0 17 11.5 28t27.5 11h23q17 0 28 -11t11 -28v-47q0 -15 -11 -26t-28 -11h-23q-15 0 -27 11t-12 26z" />
<glyph unicode="&#xd7;" horiz-adv-x="782" d="M108.5 483q-1.5 19 10.5 31l172 172l-172 172q-11 12 -10.5 28.5t12.5 28.5l20 19q11 7 25.5 5t23.5 -11l172 -172l173 172q12 12 27.5 12t25.5 -12l16 -15q12 -12 12 -27.5t-12 -27.5l-172 -172l172 -172q12 -10 12 -26.5t-12 -26.5l-16 -17q-10 -10 -25.5 -10t-27.5 10 l-173 172l-172 -172q-9 -9 -24 -10.5t-25 4.5l-16 17q-15 9 -16.5 28z" />
<glyph unicode="&#xd8;" d="M16 336v711q3 163 81.5 255.5t240.5 92.5q126 0 209 -60l8 21q5 8 16 16t21 8h24q22 0 34 -15.5t3 -35.5l-32 -82q45 -80 45 -200v-711q0 -89 -21.5 -155.5t-53 -102.5t-78 -58t-86.5 -28t-89 -6q-131 0 -203 51l-4 -12q-5 -9 -16 -17t-21 -8h-24q-22 0 -34 15.5t-3 35.5 l28 70q-45 79 -45 215zM117 352q0 -55 4 -80l383 959q-54 60 -164 63q-223 -8 -223 -266v-676zM178 143q54 -57 160 -57q121 0 174 67.5t53 192.5v680q0 38 -6 72z" />
<glyph unicode="&#xd9;" horiz-adv-x="827" d="M18 1343l2 -1007q0 -83 22 -147t55 -101t78.5 -60.5t86 -31.5t82.5 -8q43 0 84 8t86.5 31.5t79.5 60.5t56 101t22 147v1007q0 17 -11.5 28t-27.5 11h-23q-17 0 -28 -11t-11 -28v-995q0 -64 -16 -113t-40 -76.5t-56 -44.5t-59.5 -22.5t-55.5 -5.5t-54.5 5.5t-59 22.5 t-56 44.5t-39.5 76.5t-16 113v995q0 17 -11.5 28t-27.5 11h-23q-17 0 -28 -11t-11 -28zM253.5 1696.5q10.5 19.5 35.5 19.5h26q7 0 18.5 -6t16.5 -12l90 -148q12 -20 2 -39.5t-34 -19.5h-21q-6 0 -17.5 6t-15.5 12l-98 148q-13 20 -2.5 39.5z" />
<glyph unicode="&#xda;" horiz-adv-x="827" d="M18 1343q0 17 11 28t28 11h23q16 0 27.5 -11t11.5 -28v-995q0 -64 16 -113t39.5 -76.5t56 -44.5t59 -22.5t54.5 -5.5t55.5 5.5t59.5 22.5t56 44.5t40 76.5t16 113v995q0 17 11 28t28 11h23q16 0 27.5 -11t11.5 -28v-1007q0 -83 -22 -147t-56 -101t-79.5 -60.5 t-86.5 -31.5t-84 -8q-42 0 -82.5 8t-86 31.5t-78.5 60.5t-55 101t-22 147zM260 1546l45 78l39 70q5 6 15.5 12t19.5 6h20q25 0 35.5 -19.5t-2.5 -39.5l-94 -146q-14 -18 -33 -18h-10q-23 0 -34.5 18.5t-0.5 38.5z" />
<glyph unicode="&#xdb;" horiz-adv-x="827" d="M18 1343q0 17 11 28t28 11h23q16 0 27.5 -11t11.5 -28v-995q0 -64 16 -113t39.5 -76.5t56 -44.5t59 -22.5t54.5 -5.5t55.5 5.5t59.5 22.5t56 44.5t40 76.5t16 113v995q0 17 11 28t28 11h23q16 0 27.5 -11t11.5 -28v-1007q0 -83 -22 -147t-56 -101t-79.5 -60.5 t-86.5 -31.5t-84 -8q-42 0 -82.5 8t-86 31.5t-78.5 60.5t-55 101t-22 147zM209 1573q46 96 82 166q20 36 61.5 36t59.5 -34l13 -25q13 -25 27.5 -53.5t28 -55.5t15.5 -32q9 -25 -5.5 -42t-36 -15.5t-36.5 16.5q-8 10 -24.5 36t-29.5 47l-12 21q-55 -92 -63 -102 q-19 -20 -42 -21t-37 17t-1 41z" />
<glyph unicode="&#xdc;" horiz-adv-x="827" d="M18 1343q0 17 11 28t28 11h23q16 0 27.5 -11t11.5 -28v-995q0 -64 16 -113t39.5 -76.5t56 -44.5t59 -22.5t54.5 -5.5t55.5 5.5t59.5 22.5t56 44.5t40 76.5t16 113v995q0 17 11 28t28 11h23q16 0 27.5 -11t11.5 -28v-1007q0 -83 -22 -147t-56 -101t-79.5 -60.5 t-86.5 -31.5t-84 -8q-42 0 -82.5 8t-86 31.5t-78.5 60.5t-55 101t-22 147zM201 1526v47q0 17 11 28t28 11h22q16 0 27.5 -11t11.5 -28v-47q0 -15 -12 -26t-27 -11h-22q-17 0 -28 11t-11 26zM401 1526v47q0 17 11.5 28t27.5 11h23q17 0 28 -11t11 -28v-47q0 -15 -11 -26 t-28 -11h-23q-15 0 -27 11t-12 26z" />
<glyph unicode="&#xdd;" horiz-adv-x="733" d="M16 1329q-7 20 4 35.5t33 15.5h23q10 0 21 -7.5t16 -16.5l219 -578l217 578q4 9 16 16.5t21 7.5h24q22 0 32.5 -15.5t4.5 -35.5l-266 -696v-594q0 -17 -11 -28t-28 -11h-25q-15 0 -26.5 11t-11.5 28v594zM244 1548l45 78l39 70q13 18 34 18h21q25 0 35.5 -19.5 t-2.5 -39.5l-94 -146q-14 -18 -33 -18h-10q-23 0 -34.5 18.5t-0.5 38.5z" />
<glyph unicode="&#xde;" horiz-adv-x="722" d="M20 39v1302q0 17 11.5 28t27.5 11h23q17 0 28 -11t11 -28v-313q86 80 192 80q61 0 110.5 -19.5t82 -52t54 -77t31 -91.5t9.5 -98v-133q-2 -69 -18 -128t-48.5 -107.5t-89 -76.5t-131.5 -28q-103 3 -192 82v-340q0 -17 -11 -28t-28 -11h-23q-16 0 -27.5 11t-11.5 28z M125 655q0 -258 188 -258q88 0 137.5 62.5t49.5 195.5v95q0 133 -49.5 195.5t-137.5 62.5q-188 0 -188 -258v-95z" />
<glyph unicode="&#xdf;" horiz-adv-x="718" d="M-2 39v915q-2 85 10 152.5t31 110t47.5 73.5t52.5 45.5t55 22.5t45.5 9t32.5 1q77 0 132 -25t86 -72.5t45 -107.5t14 -139q0 -125 -39.5 -211t-99.5 -123q91 -37 149.5 -121.5t58.5 -208.5q0 -104 -24.5 -175.5t-72 -111t-107.5 -56.5t-142 -17q-16 0 -27.5 11t-11.5 28 v20q0 15 12 26t27 11q60 0 102.5 12t76 40.5t50.5 81.5t17 130q0 71 -22.5 125t-60.5 84.5t-79 46.5t-86 19q-14 2 -25.5 13.5t-11.5 25.5v22q0 15 11 26t26 11q88 5 134.5 78.5t46.5 212.5q0 120 -39 182.5t-144 63.5q-15 -1 -23 -2t-28 -8t-33.5 -19.5t-31 -39.5 t-28.5 -63.5t-18.5 -95t-7.5 -131.5v-872q0 -17 -11.5 -28t-27.5 -11h-24q-15 0 -26 11t-11 28z" />
<glyph unicode="&#xe0;" horiz-adv-x="854" d="M14 47q29 130 152 653q80 349 149 650q1 12 12 21t23 9h21q12 0 24 -9t15 -21l295 -1303q4 -20 -7.5 -33.5t-31.5 -13.5h-23q-12 0 -24 9.5t-15 21.5l-84 379h-319l-6 -25q-13 -54 -39.5 -174t-40.5 -180q-3 -11 -14.5 -21t-24.5 -10h-23q-19 0 -31 13.5t-8 33.5z M223 510h275l-138 610zM283.5 1694.5q10.5 19.5 35.5 19.5h27q7 0 18.5 -6t16.5 -12l90 -148q12 -20 1.5 -39.5t-34.5 -19.5h-20q-6 0 -17.5 6t-15.5 12l-98 148q-14 20 -3.5 39.5z" />
<glyph unicode="&#xe1;" horiz-adv-x="854" d="M14 47q29 130 152 653q80 349 149 650q1 12 12 21t23 9h21q12 0 24 -9t15 -21l295 -1303q4 -20 -7.5 -33.5t-31.5 -13.5h-23q-12 0 -24 9.5t-15 21.5l-84 379h-319l-6 -25q-13 -54 -39.5 -174t-40.5 -180q-3 -11 -14.5 -21t-24.5 -10h-23q-19 0 -31 13.5t-8 33.5z M223 510h275l-138 610zM283 1509.5q-11 18.5 0 38.5l45 78l39 70q13 18 34 18h21q25 0 35.5 -19.5t-2.5 -39.5l-95 -146q-14 -18 -32 -18h-11q-23 0 -34 18.5z" />
<glyph unicode="&#xe2;" horiz-adv-x="854" d="M14 47q29 130 152 653q80 349 149 650q1 12 12 21t23 9h21q12 0 24 -9t15 -21l295 -1303q4 -20 -7.5 -33.5t-31.5 -13.5h-23q-12 0 -24 9.5t-15 21.5l-84 379h-319l-6 -25q-13 -54 -39.5 -174t-40.5 -180q-3 -11 -14.5 -21t-24.5 -10h-23q-19 0 -31 13.5t-8 33.5z M217 1571q46 96 82 166q20 36 61.5 36t59.5 -34l8 -17q9 -17 20.5 -39t23.5 -45.5t21 -42t11 -22.5q9 -25 -5.5 -42t-36 -15.5t-36.5 16.5q-8 10 -24.5 36t-29.5 47l-12 21q-55 -92 -63 -102q-19 -20 -42 -21t-37 17t-1 41zM223 510h275l-138 610z" />
<glyph unicode="&#xe3;" horiz-adv-x="854" d="M14 47q29 130 152 653q80 349 149 650q1 12 12 21t23 9h21q12 0 24 -9t15 -21l295 -1303q4 -20 -7.5 -33.5t-31.5 -13.5h-23q-12 0 -24 9.5t-15 21.5l-84 379h-319l-6 -25q-13 -54 -39.5 -174t-40.5 -180q-3 -11 -14.5 -21t-24.5 -10h-23q-19 0 -31 13.5t-8 33.5z M88 1597q3 14 18 23q82 57 140 57q60 0 160 -47q4 -2 23 -10.5t25 -11t20 -7.5t24 -6.5t20 -1.5q17 0 47 15q23 10 46 -10.5t23.5 -45.5t-26.5 -39q-64 -22 -92 -22q-66 0 -154 47q-80 37 -112 37q-39 0 -82 -35q-23 -21 -56 5q-30 25 -24 52zM223 510h275l-138 610z" />
<glyph unicode="&#xe4;" horiz-adv-x="854" d="M14 47q29 130 152 653q80 349 149 650q1 12 12 21t23 9h21q12 0 24 -9t15 -21l295 -1303q4 -20 -7.5 -33.5t-31.5 -13.5h-23q-12 0 -24 9.5t-15 21.5l-84 379h-319l-6 -25q-13 -54 -39.5 -174t-40.5 -180q-3 -11 -14.5 -21t-24.5 -10h-23q-19 0 -31 13.5t-8 33.5z M213 1526v47q0 17 11 28t28 11h22q16 0 27.5 -11t11.5 -28v-47q0 -15 -12 -26t-27 -11h-22q-17 0 -28 11t-11 26zM223 510h275l-138 610zM414 1526v47q0 17 11.5 28t27.5 11h22q17 0 28 -11t11 -28v-47q0 -15 -11 -26t-28 -11h-22q-15 0 -27 11t-12 26z" />
<glyph unicode="&#xe5;" horiz-adv-x="854" d="M14 47q29 130 152 653q80 349 149 650q1 12 12 21t23 9h21q12 0 24 -9t15 -21l295 -1303q4 -20 -7.5 -33.5t-31.5 -13.5h-23q-12 0 -24 9.5t-15 21.5l-84 379h-319l-6 -25q-13 -54 -39.5 -174t-40.5 -180q-3 -11 -14.5 -21t-24.5 -10h-23q-19 0 -31 13.5t-8 33.5z M197 1591q0 69 47 118.5t116 49.5t118.5 -49.5t49.5 -118.5q0 -70 -49 -118t-119 -48q-69 0 -116 48t-47 118zM223 510h275l-138 610zM297 1593q0 -29 17 -47t46 -18q30 0 49 17t19 46t-19.5 48.5t-48.5 19.5t-46 -18t-17 -48z" />
<glyph unicode="&#xe6;" horiz-adv-x="1216" d="M12 51l492 1292q5 9 16 17t21 8h458q15 0 26 -12t11 -27v-20q0 -15 -11 -27t-26 -12h-376v-537h219q15 0 26 -11t11 -26v-22q0 -15 -11 -27t-26 -12h-219v-539h376q15 0 26 -11t11 -26v-20q0 -17 -11 -28t-26 -11h-438q-16 0 -27.5 11t-11.5 28v596h-166l-241 -610 q-3 -9 -14.5 -17t-20.5 -8h-31q-22 0 -32.5 15.5t-4.5 35.5zM381 733h141v357z" />
<glyph unicode="&#xe7;" horiz-adv-x="790" d="M23 342v698q0 89 21 156t52 104t76.5 59.5t85.5 29t88 6.5t88 -6.5t86 -29t78 -59.5t53 -104t21 -156v-55q0 -15 -11 -26t-28 -11h-23q-17 0 -28 11t-11 26v62q0 116 -55 182.5t-170 66.5q-117 0 -170 -71.5t-53 -184.5v-698q0 -119 54.5 -187.5t168.5 -68.5 q115 0 170 67t55 175v69q0 15 11 26t28 11h23q17 0 28 -11t11 -26v-55q0 -356 -326 -356q-47 0 -87.5 7t-86 29.5t-76.5 59.5t-52 104t-21 156zM288 -234q-5 21 9 36t37 10q41 -11 65 0q25 12 28.5 32t-17.5 34.5t-58 10.5q-21 -2 -33.5 10.5t-9.5 32.5q2 26 5 46.5t3 21.5 q7 12 26.5 19.5t36.5 6t17 -13.5q0 -35 -4 -45q20 2 33 2q46 0 76.5 -25t29.5 -77q-3 -75 -65.5 -117t-147.5 -14q-26 9 -31 30z" />
<glyph unicode="&#xe8;" horiz-adv-x="671" d="M25 1341q0 17 10.5 28t27.5 11h443q16 0 27.5 -11t11.5 -28v-20q0 -17 -11.5 -28t-27.5 -11h-381v-545h237q15 0 27 -12t12 -27v-22q0 -15 -12 -26t-27 -11h-237v-541h381q16 0 27.5 -11t11.5 -28v-20q0 -17 -11.5 -28t-27.5 -11h-440q-17 0 -28 11t-11 28zM214.5 1694.5 q10.5 19.5 35.5 19.5h26q7 0 18.5 -6t16.5 -12l90 -148q12 -20 2 -39.5t-34 -19.5h-21q-6 0 -17.5 6t-15.5 12l-98 148q-13 20 -2.5 39.5z" />
<glyph unicode="&#xe9;" horiz-adv-x="671" d="M25 1341q0 17 10.5 28t27.5 11h443q16 0 27.5 -11t11.5 -28v-20q0 -17 -11.5 -28t-27.5 -11h-381v-545h237q15 0 27 -12t12 -27v-22q0 -15 -12 -26t-27 -11h-237v-541h381q16 0 27.5 -11t11.5 -28v-20q0 -17 -11.5 -28t-27.5 -11h-440q-17 0 -28 11t-11 28zM240 1509.5 q-11 18.5 0 38.5l45 78l39 70q14 18 34 18h21q25 0 35.5 -19.5t-2.5 -39.5l-95 -146q-14 -18 -32 -18h-11q-23 0 -34 18.5z" />
<glyph unicode="&#xea;" horiz-adv-x="671" d="M25 1341q0 17 10.5 28t27.5 11h443q16 0 27.5 -11t11.5 -28v-20q0 -17 -11.5 -28t-27.5 -11h-381v-545h237q15 0 27 -12t12 -27v-22q0 -15 -12 -26t-27 -11h-237v-541h381q16 0 27.5 -11t11.5 -28v-20q0 -17 -11.5 -28t-27.5 -11h-440q-17 0 -28 11t-11 28zM143 1569 q46 96 82 166q20 36 61.5 36t59.5 -34l8 -17q9 -17 20.5 -39t23.5 -45.5t21 -42t11 -22.5q9 -25 -5.5 -42t-36 -15.5t-36.5 16.5q-8 10 -24 36t-28 47l-13 21q-56 -92 -64 -102q-19 -20 -42 -21t-37 17t-1 41z" />
<glyph unicode="&#xeb;" horiz-adv-x="671" d="M25 1341q0 17 10.5 28t27.5 11h443q16 0 27.5 -11t11.5 -28v-20q0 -17 -11.5 -28t-27.5 -11h-381v-545h237q15 0 27 -12t12 -27v-22q0 -15 -12 -26t-27 -11h-237v-541h381q16 0 27.5 -11t11.5 -28v-20q0 -17 -11.5 -28t-27.5 -11h-440q-17 0 -28 11t-11 28zM139 1526v47 q0 17 11 28t28 11h23q16 0 27.5 -11t11.5 -28v-47q0 -15 -12 -26t-27 -11h-23q-17 0 -28 11t-11 26zM340 1526v47q0 17 11.5 28t27.5 11h22q17 0 28 -11t11 -28v-47q0 -15 -11 -26t-28 -11h-22q-15 0 -27 11t-12 26z" />
<glyph unicode="&#xec;" horiz-adv-x="274" d="M5.5 1694.5q10.5 19.5 35.5 19.5h27q7 0 18 -6t16 -12l91 -148q12 -20 1.5 -39.5t-34.5 -19.5h-21q-6 0 -17.5 6t-15.5 12l-98 148q-13 20 -2.5 39.5zM49 39q0 -17 11.5 -28t27.5 -11h21q15 0 26.5 11t11.5 28v1290q0 15 -11.5 27t-26.5 12h-21q-15 0 -27 -12t-12 -27 v-1290z" />
<glyph unicode="&#xed;" horiz-adv-x="274" d="M8 1550l45 78l39 70q14 18 35 18h20q25 0 35.5 -19.5t-2.5 -39.5l-94 -146q-5 -6 -15.5 -12t-17.5 -6h-10q-23 0 -34.5 18.5t-0.5 38.5zM49 39v1290q0 15 12 27t27 12h21q15 0 26.5 -12t11.5 -27v-1290q0 -17 -11.5 -28t-26.5 -11h-21q-16 0 -27.5 11t-11.5 28z" />
<glyph unicode="&#xee;" horiz-adv-x="274" d="M-49 1571q46 96 82 166q20 36 61.5 36t59.5 -34l8 -17q9 -17 20.5 -39t23.5 -45.5t21 -42t11 -22.5q9 -25 -5.5 -42t-36 -15.5t-36.5 16.5q-8 10 -24.5 36t-29.5 47l-12 21q-55 -92 -63 -102q-19 -20 -42 -21t-37 17t-1 41zM49 39v1290q0 15 12 27t27 12h21 q15 0 26.5 -12t11.5 -27v-1290q0 -17 -11.5 -28t-26.5 -11h-21q-16 0 -27.5 11t-11.5 28z" />
<glyph unicode="&#xef;" horiz-adv-x="274" d="M-51 1528v47q0 17 11 28t28 11h22q16 0 27.5 -11t11.5 -28v-47q0 -15 -12 -26t-27 -11h-22q-17 0 -28 11t-11 26zM49 39v1290q0 15 12 27t27 12h21q15 0 26.5 -12t11.5 -27v-1290q0 -17 -11.5 -28t-26.5 -11h-21q-16 0 -27.5 11t-11.5 28zM150 1528v47q0 17 11.5 28 t26.5 11h23q17 0 28 -11t11 -28v-47q0 -15 -11 -26t-28 -11h-23q-15 0 -26.5 11t-11.5 26z" />
<glyph unicode="&#xf0;" horiz-adv-x="778" d="M-211 672v22q0 15 11 26t26 11h194v598q0 15 11 27t26 12h238q326 -11 326 -379v-612q-7 -377 -326 -377h-238q-15 0 -26 11t-11 28v594h-194q-15 0 -26 12t-11 27zM117 96h164q239 0 239 293v590q0 291 -239 291h-164v-539h151q15 0 26 -11t11 -26v-22q0 -15 -11 -27 t-26 -12h-151v-537z" />
<glyph unicode="&#xf1;" horiz-adv-x="788" d="M27 39v1302q0 17 10.5 28t25.5 11h21q9 0 20.5 -8t16.5 -16l420 -1041v1026q0 17 11 28t28 11h22q16 0 27.5 -11t11.5 -28v-1302q0 -17 -11.5 -28t-27.5 -11h-20q-8 0 -20 8.5t-17 16.5l-123 307q-156 394 -295 737v-1030q0 -17 -11.5 -28t-27.5 -11h-25q-15 0 -25.5 11 t-10.5 28zM60 1595q3 14 18 23q82 57 139 57q60 0 160 -47q4 -2 23 -10.5t25 -11t20 -7.5t24 -6.5t20 -1.5q18 0 48 15q23 10 46 -10.5t23.5 -45.5t-26.5 -39q-64 -22 -93 -22q-65 0 -153 47q-80 37 -113 37q-39 0 -82 -35q-23 -21 -56 5q-29 25 -23 52z" />
<glyph unicode="&#xf2;" d="M27 336q0 -89 21 -155.5t52.5 -102.5t77 -58t84.5 -28t86 -6q49 0 89 6t86.5 28t78 58t53 102.5t21.5 155.5v711q0 158 -81 253t-247 95q-162 0 -240 -92.5t-81 -255.5v-711zM127 352v676q0 258 223 266q225 -3 225 -268v-680q0 -125 -53 -192.5t-174 -67.5 q-116 0 -168.5 67.5t-52.5 198.5zM251.5 1694.5q10.5 19.5 35.5 19.5h26q7 0 18.5 -6t16.5 -12l90 -148q12 -20 2 -39.5t-34 -19.5h-21q-6 0 -17.5 6t-15.5 12l-98 148q-13 20 -2.5 39.5z" />
<glyph unicode="&#xf3;" d="M27 336v711q3 163 81 255.5t240 92.5q166 0 247 -95t81 -253v-711q0 -89 -21.5 -155.5t-53 -102.5t-78 -58t-86.5 -28t-89 -6q-47 0 -86 6t-84.5 28t-77 58t-52.5 102.5t-21 155.5zM127 352q0 -131 52.5 -198.5t168.5 -67.5q121 0 174 67.5t53 192.5v680q0 265 -225 268 q-223 -8 -223 -266v-676zM258 1548l45 78l39 70q14 18 35 18h20q25 0 35.5 -19.5t-2.5 -39.5l-94 -146q-14 -18 -33 -18h-10q-23 0 -34.5 18.5t-0.5 38.5z" />
<glyph unicode="&#xf4;" d="M27 336v711q3 163 81 255.5t240 92.5q166 0 247 -95t81 -253v-711q0 -89 -21.5 -155.5t-53 -102.5t-78 -58t-86.5 -28t-89 -6q-47 0 -86 6t-84.5 28t-77 58t-52.5 102.5t-21 155.5zM127 352q0 -131 52.5 -198.5t168.5 -67.5q121 0 174 67.5t53 192.5v680q0 265 -225 268 q-223 -8 -223 -266v-676zM201 1571q46 96 82 166q20 36 61 36t59 -34l9 -17q8 -17 19.5 -39t23.5 -45.5t21 -42t11 -22.5q9 -25 -5.5 -42t-35.5 -15.5t-36 16.5q-8 10 -24.5 36t-29.5 47l-12 21q-55 -92 -63 -102q-19 -20 -42 -21t-37 17t-1 41z" />
<glyph unicode="&#xf5;" d="M27 336v711q3 163 81 255.5t240 92.5q166 0 247 -95t81 -253v-711q0 -89 -21.5 -155.5t-53 -102.5t-78 -58t-86.5 -28t-89 -6q-47 0 -86 6t-84.5 28t-77 58t-52.5 102.5t-21 155.5zM76 1595q3 14 18 23q82 57 139 57q60 0 160 -47q5 -2 20 -8.5t20.5 -9t18 -7.5t19.5 -7 t17 -3.5t18 -1.5q17 0 47 15q23 10 46 -10.5t23.5 -45.5t-26.5 -39q-64 -22 -92 -22q-66 0 -154 47q-80 37 -112 37q-39 0 -82 -35q-23 -21 -56 5q-30 25 -24 52zM127 352q0 -131 52.5 -198.5t168.5 -67.5q121 0 174 67.5t53 192.5v680q0 265 -225 268q-223 -8 -223 -266 v-676z" />
<glyph unicode="&#xf6;" d="M27 336v711q3 163 81 255.5t240 92.5q166 0 247 -95t81 -253v-711q0 -89 -21.5 -155.5t-53 -102.5t-78 -58t-86.5 -28t-89 -6q-47 0 -86 6t-84.5 28t-77 58t-52.5 102.5t-21 155.5zM127 352q0 -131 52.5 -198.5t168.5 -67.5q121 0 174 67.5t53 192.5v680q0 265 -225 268 q-223 -8 -223 -266v-676zM205 1526v47q0 17 11 28t28 11h22q16 0 27.5 -11t11.5 -28v-47q0 -15 -12 -26t-27 -11h-22q-17 0 -28 11t-11 26zM406 1526v47q0 17 11.5 28t26.5 11h23q17 0 28 -11t11 -28v-47q0 -15 -11 -26t-28 -11h-23q-15 0 -26.5 11t-11.5 26z" />
<glyph unicode="&#xf7;" horiz-adv-x="673" d="M23 678q0 -16 10.5 -27.5t27.5 -11.5h445q15 0 27 12t12 27v22q0 15 -12 27t-27 12h-445q-17 0 -27.5 -11.5t-10.5 -27.5v-22zM242 342v72q0 15 11 26t26 11h24q15 0 27 -11t12 -26v-72q0 -17 -11.5 -28t-27.5 -11h-24q-15 0 -26 11t-11 28zM242 930v71q0 15 11 26t26 11 h24q15 0 27 -11t12 -26v-71q0 -17 -11.5 -28t-27.5 -11h-24q-15 0 -26 11t-11 28z" />
<glyph unicode="&#xf8;" d="M16 371v626q5 166 84.5 268.5t237.5 102.5q103 0 192 -63q11 27 21 41q3 7 14 14.5t19 7.5h24q22 0 32.5 -16.5t2.5 -36.5l-39 -92q55 -96 55 -226v-626q0 -88 -20.5 -156t-52 -107.5t-75.5 -65t-85.5 -34t-87.5 -8.5q-109 0 -197 61q-8 -27 -16 -38q-14 -23 -35 -23h-24 q-20 0 -30.5 16.5t-2.5 36.5l37 86q-54 96 -54 232zM117 371q0 -47 8 -80l371 917q-62 59 -156 62q-115 -3 -169 -79.5t-54 -193.5v-626zM182 160q64 -64 156 -64q59 0 103.5 23.5t70 63.5t37.5 87t12 101v624q-6 67 -10 84q-95 -239 -369 -919z" />
<glyph unicode="&#xf9;" horiz-adv-x="827" d="M18 1343l2 -1007q0 -83 22 -147t55 -101t78.5 -60.5t86 -31.5t82.5 -8q43 0 84 8t86.5 31.5t79.5 60.5t56 101t22 147v1007q0 17 -11.5 28t-27.5 11h-23q-17 0 -28 -11t-11 -28v-995q0 -64 -16 -113t-40 -76.5t-56 -44.5t-59.5 -22.5t-55.5 -5.5t-54.5 5.5t-59 22.5 t-56 44.5t-39.5 76.5t-16 113v995q0 17 -11.5 28t-27.5 11h-23q-17 0 -28 -11t-11 -28zM253.5 1694.5q10.5 19.5 35.5 19.5h26q7 0 18.5 -6t16.5 -12l90 -148q12 -20 2 -39.5t-34 -19.5h-21q-6 0 -17.5 6t-15.5 12l-98 148q-13 20 -2.5 39.5z" />
<glyph unicode="&#xfa;" horiz-adv-x="827" d="M18 1343q0 17 11 28t28 11h23q16 0 27.5 -11t11.5 -28v-995q0 -64 16 -113t39.5 -76.5t56 -44.5t59 -22.5t54.5 -5.5t55.5 5.5t59.5 22.5t56 44.5t40 76.5t16 113v995q0 17 11 28t28 11h23q16 0 27.5 -11t11.5 -28v-1007q0 -83 -22 -147t-56 -101t-79.5 -60.5 t-86.5 -31.5t-84 -8q-42 0 -82.5 8t-86 31.5t-78.5 60.5t-55 101t-22 147zM268 1548l45 78l39 70q5 6 15.5 12t19.5 6h21q25 0 35.5 -19.5t-3.5 -39.5l-94 -146q-14 -18 -33 -18h-10q-23 0 -34.5 18.5t-0.5 38.5z" />
<glyph unicode="&#xfb;" horiz-adv-x="827" d="M18 1343q0 17 11 28t28 11h23q16 0 27.5 -11t11.5 -28v-995q0 -64 16 -113t39.5 -76.5t56 -44.5t59 -22.5t54.5 -5.5t55.5 5.5t59.5 22.5t56 44.5t40 76.5t16 113v995q0 17 11 28t28 11h23q16 0 27.5 -11t11.5 -28v-1007q0 -83 -22 -147t-56 -101t-79.5 -60.5 t-86.5 -31.5t-84 -8q-42 0 -82.5 8t-86 31.5t-78.5 60.5t-55 101t-22 147zM207 1573q46 96 82 166q20 36 61.5 36t59.5 -34l13 -25q13 -25 27.5 -53.5t28 -55.5t15.5 -32q9 -25 -5.5 -42t-36 -15.5t-36.5 16.5q-8 10 -24.5 36t-29.5 47l-12 21q-55 -92 -63 -102 q-19 -20 -42 -21t-37 17t-1 41z" />
<glyph unicode="&#xfc;" horiz-adv-x="827" d="M18 1343q0 17 11 28t28 11h23q16 0 27.5 -11t11.5 -28v-995q0 -64 16 -113t39.5 -76.5t56 -44.5t59 -22.5t54.5 -5.5t55.5 5.5t59.5 22.5t56 44.5t40 76.5t16 113v995q0 17 11 28t28 11h23q16 0 27.5 -11t11.5 -28v-1007q0 -83 -22 -147t-56 -101t-79.5 -60.5 t-86.5 -31.5t-84 -8q-42 0 -82.5 8t-86 31.5t-78.5 60.5t-55 101t-22 147zM205 1526v47q0 17 11 28t28 11h22q16 0 27.5 -11t11.5 -28v-47q0 -15 -12 -26t-27 -11h-22q-17 0 -28 11t-11 26zM406 1526v47q0 17 11.5 28t26.5 11h23q17 0 28 -11t11 -28v-47q0 -15 -11 -26 t-28 -11h-23q-15 0 -26.5 11t-11.5 26z" />
<glyph unicode="&#xfd;" horiz-adv-x="733" d="M16 1329q-7 20 4 35.5t33 15.5h23q10 0 21 -7.5t16 -16.5l219 -578l217 578q4 9 16 16.5t21 7.5h24q22 0 32.5 -15.5t4.5 -35.5l-266 -696v-594q0 -17 -11 -28t-28 -11h-25q-15 0 -26.5 11t-11.5 28v594zM250 1550l45 78l39 70q5 6 15.5 12t19.5 6h20q25 0 35.5 -19.5 t-2.5 -39.5l-94 -146q-14 -18 -33 -18h-10q-23 0 -34.5 18.5t-0.5 38.5z" />
<glyph unicode="&#xfe;" horiz-adv-x="722" d="M25 39v1290q0 15 10.5 27t25.5 12h21q15 0 27 -12t12 -27v-309q84 78 190 78q75 0 132 -29t89.5 -78t48 -106.5t15.5 -122.5v-133q-2 -68 -18 -126t-48 -106t-88 -75t-131 -27q-102 0 -190 82v-338q0 -17 -11.5 -28t-27.5 -11h-21q-15 0 -25.5 11t-10.5 28zM125 651 q0 -132 49.5 -195t136.5 -63q88 0 137.5 63t49.5 195v92q0 256 -187 256q-87 0 -136.5 -62.5t-49.5 -193.5v-92z" />
<glyph unicode="&#xff;" horiz-adv-x="733" d="M16 1329q-7 20 4 35.5t33 15.5h23q10 0 21 -7.5t16 -16.5l219 -578l217 578q4 9 16 16.5t21 7.5h24q22 0 32.5 -15.5t4.5 -35.5l-266 -696v-594q0 -17 -11 -28t-28 -11h-25q-15 0 -26.5 11t-11.5 28v594zM182 1526v47q0 17 11 28t28 11h23q16 0 27.5 -11t11.5 -28v-47 q0 -15 -12 -26t-27 -11h-23q-17 0 -28 11t-11 26zM383 1526v47q0 17 11.5 28t27.5 11h22q17 0 28 -11t11 -28v-47q0 -15 -11 -26t-28 -11h-22q-15 0 -27 11t-12 26z" />
<glyph unicode="&#x152;" horiz-adv-x="1222" d="M16 379v639q2 81 21.5 147.5t57.5 119t101 81.5t146 29q142 0 231 -80v41q0 16 11 27.5t28 11.5h447q15 0 27 -12t12 -27v-23q0 -15 -12 -26t-27 -11h-387v-548h225q17 0 28 -11t11 -28v-23q0 -16 -11 -27.5t-28 -11.5h-225v-549h387q16 0 27.5 -11t11.5 -28v-20 q0 -17 -11.5 -28t-27.5 -11h-447q-17 0 -28 11t-11 28v55q-49 -48 -114 -71t-117 -23q-45 0 -86.5 9t-87 34.5t-78 66t-53.5 109.5t-21 160zM117 379q2 -60 14.5 -108.5t38 -88.5t69.5 -62t103 -22q61 0 107 25.5t71.5 68.5t38 93t12.5 106v627q-7 275 -227 278 q-79 -3 -132 -43.5t-74 -99.5t-21 -135v-639z" />
<glyph unicode="&#x153;" horiz-adv-x="1277" d="M23 371v626q1 79 20 145t56.5 117t99.5 80t143 29q137 0 225 -78v39q0 15 12 27t27 12h438q15 0 26 -12t11 -27v-20q0 -15 -11 -27t-26 -12h-380v-537h223q15 0 26 -11t11 -26v-22q0 -15 -11 -27t-26 -12h-223v-539h380q15 0 26 -11t11 -26v-20q0 -17 -11 -28t-26 -11 h-438q-16 0 -27.5 11t-11.5 28v53q-48 -47 -111 -69.5t-114 -22.5q-45 0 -85.5 8.5t-84.5 34t-76 65t-52.5 107.5t-20.5 156zM121 371q2 -58 14 -105.5t37 -86.5t68 -61t102 -22q60 0 104.5 25t69.5 67t37 91t12 104v614q-7 270 -221 273q-115 -3 -169 -79.5t-54 -193.5 v-626z" />
<glyph unicode="&#x178;" horiz-adv-x="733" d="M16 1329q-7 20 4 35.5t33 15.5h23q10 0 21 -7.5t16 -16.5l219 -578l217 578q4 9 16 16.5t21 7.5h24q22 0 32.5 -15.5t4.5 -35.5l-266 -696v-594q0 -17 -11 -28t-28 -11h-25q-15 0 -26.5 11t-11.5 28v594zM195 1528v47q0 17 10.5 28t27.5 11h23q16 0 27.5 -11t11.5 -28 v-47q0 -15 -12 -26t-27 -11h-23q-17 0 -27.5 11t-10.5 26zM395 1528v47q0 17 11.5 28t27.5 11h23q17 0 28 -11t11 -28v-47q0 -15 -11 -26t-28 -11h-23q-15 0 -27 11t-12 26z" />
<glyph unicode="&#x2c6;" horiz-adv-x="391" d="M31 1257.5q-13 17.5 0 40.5q46 96 82 166q20 36 61 36t59 -34l9 -17q8 -17 19.5 -39t23.5 -45.5t21 -42t11 -22.5q9 -25 -5.5 -42t-35.5 -15t-36 17q-8 10 -24.5 36t-29.5 47l-12 21q-55 -92 -63 -102q-17 -21 -42 -21.5t-38 17z" />
<glyph unicode="&#x2dc;" horiz-adv-x="659" d="M19 1429q3 14 18 23q82 57 139 57q60 0 160 -47q5 -2 20 -8.5t20.5 -9t18 -7.5t19.5 -7t17 -3.5t18 -1.5q17 0 47 15q23 10 46 -10t23.5 -45t-26.5 -39q-67 -23 -93 -23q-65 0 -153 47q-80 37 -113 37q-39 0 -82 -35q-23 -21 -56 5q-29 25 -23 52z" />
<glyph unicode="&#x2000;" horiz-adv-x="887" />
<glyph unicode="&#x2001;" horiz-adv-x="1775" />
<glyph unicode="&#x2002;" horiz-adv-x="887" />
<glyph unicode="&#x2003;" horiz-adv-x="1775" />
<glyph unicode="&#x2004;" horiz-adv-x="591" />
<glyph unicode="&#x2005;" horiz-adv-x="443" />
<glyph unicode="&#x2006;" horiz-adv-x="295" />
<glyph unicode="&#x2007;" horiz-adv-x="295" />
<glyph unicode="&#x2008;" horiz-adv-x="221" />
<glyph unicode="&#x2009;" horiz-adv-x="355" />
<glyph unicode="&#x200a;" horiz-adv-x="98" />
<glyph unicode="&#x2010;" horiz-adv-x="663" d="M23 674v22q0 16 10.5 27.5t27.5 11.5h445q15 0 27 -12t12 -27v-22q0 -17 -11.5 -28t-27.5 -11h-445q-17 0 -27.5 11t-10.5 28z" />
<glyph unicode="&#x2011;" horiz-adv-x="663" d="M23 674v22q0 16 10.5 27.5t27.5 11.5h445q15 0 27 -12t12 -27v-22q0 -17 -11.5 -28t-27.5 -11h-445q-17 0 -27.5 11t-10.5 28z" />
<glyph unicode="&#x2012;" horiz-adv-x="663" d="M23 674v22q0 16 10.5 27.5t27.5 11.5h445q15 0 27 -12t12 -27v-22q0 -17 -11.5 -28t-27.5 -11h-445q-17 0 -27.5 11t-10.5 28z" />
<glyph unicode="&#x2013;" horiz-adv-x="663" d="M23 674v24q0 16 10.5 27.5t27.5 11.5h445q15 0 27 -12t12 -27v-24q0 -15 -12 -26t-27 -11h-445q-17 0 -27.5 11t-10.5 26z" />
<glyph unicode="&#x2014;" horiz-adv-x="663" d="M23 674v24q0 16 10.5 27.5t27.5 11.5h445q15 0 27 -12t12 -27v-24q0 -15 -12 -26t-27 -11h-445q-17 0 -27.5 11t-10.5 26z" />
<glyph unicode="&#x2018;" horiz-adv-x="217" d="M23 1276v61q0 17 10.5 28t27.5 11h23q16 0 27.5 -11t11.5 -28v-65q0 -7 -4 -15q5 0 8.5 -9t3.5 -15q0 -17 -12 -29t-29 -12q-67 0 -67 84z" />
<glyph unicode="&#x2019;" horiz-adv-x="217" d="M20 1235q0 16 11 27v75q0 17 11.5 28t27.5 11h24q15 0 26 -11t11 -28v-61q0 -22 -3.5 -37t-20.5 -29t-48 -14q-17 0 -28 11.5t-11 27.5z" />
<glyph unicode="&#x201a;" horiz-adv-x="212" d="M-43 -29l47 127q1 10 13 17.5t22 7.5h29q22 0 33 -16.5t3 -36.5l-57 -127q-5 -9 -16 -17t-21 -8h-16q-22 0 -33.5 16.5t-3.5 36.5z" />
<glyph unicode="&#x201c;" horiz-adv-x="358" d="M23 1276v61q0 17 11.5 28t26.5 11h25q16 0 27.5 -11t11.5 -28v-65q0 -7 -4 -15q5 0 8.5 -9t3.5 -15q0 -17 -12 -29t-29 -12q-69 0 -69 84zM178 1276v61q0 17 11.5 28t27.5 11h23q17 0 28 -11t11 -28v-65q0 -5 -5 -15q5 0 9 -10t4 -16q0 -15 -12 -27t-27 -12 q-39 0 -54.5 26t-15.5 58z" />
<glyph unicode="&#x201d;" horiz-adv-x="352" d="M23 1235q0 17 10 27v75q0 17 11.5 28t27.5 11h22q17 0 28 -11t11 -28v-61q0 -80 -72 -80q-17 0 -27.5 11.5t-10.5 27.5zM178 1235q0 17 10 27v75q0 17 11 28t28 11h23q16 0 27.5 -11t11.5 -28v-61q0 -80 -72 -80q-17 0 -28 11.5t-11 27.5z" />
<glyph unicode="&#x201e;" horiz-adv-x="350" d="M-41 -29l45 127q3 10 15 17.5t22 7.5h29q22 0 33 -16.5t3 -36.5l-57 -127q-5 -9 -16 -17t-21 -8h-16q-22 0 -33.5 16.5t-3.5 36.5zM115 -29l47 127q1 10 13.5 17.5t23.5 7.5h26q22 0 33.5 -16.5t3.5 -36.5l-57 -127q-5 -9 -16 -17t-21 -8h-16q-22 0 -33.5 16.5t-3.5 36.5 z" />
<glyph unicode="&#x2022;" horiz-adv-x="378" d="M84 678q0 29 18 47t45 18q28 0 45 -18t17 -47q0 -28 -17 -45t-45 -17q-27 0 -45 17.5t-18 44.5z" />
<glyph unicode="&#x2026;" horiz-adv-x="571" d="M18 39v47q0 15 12 26t27 11h23q17 0 28 -11t11 -26v-47q0 -17 -11 -28t-28 -11h-23q-16 0 -27.5 11t-11.5 28zM199 39v47q0 15 12 26t27 11h26q15 0 26 -11t11 -26v-47q0 -17 -11 -28t-26 -11h-26q-16 0 -27.5 11t-11.5 28zM383 39v47q0 15 11 26t28 11h22q15 0 27 -11 t12 -26v-47q0 -17 -11.5 -28t-27.5 -11h-22q-17 0 -28 11t-11 28z" />
<glyph unicode="&#x202f;" horiz-adv-x="355" />
<glyph unicode="&#x2039;" horiz-adv-x="819" d="M46 690.5q0 13.5 7 22.5l496 635q25 32 65 32h11q26 0 36.5 -20.5t-6.5 -40.5l-495 -629q94 -121 268 -341.5t227 -287.5q17 -20 6.5 -40.5t-36.5 -20.5h-15q-29 0 -45 16l-512 652q-7 9 -7 22.5z" />
<glyph unicode="&#x203a;" horiz-adv-x="819" d="M59.5 20.5q-10.5 20.5 6.5 40.5q53 67 227 287.5t268 341.5l-495 629q-17 20 -6.5 40.5t36.5 20.5h10q41 0 66 -32l496 -635q8 -9 8 -22.5t-8 -22.5l-512 -652q-16 -16 -45 -16h-15q-26 0 -36.5 20.5z" />
<glyph unicode="&#x205f;" horiz-adv-x="443" />
<glyph unicode="&#x20ac;" horiz-adv-x="800" d="M-70 459v22q0 15 12 27t27 12h82v258h-82q-15 0 -27 12t-12 27v23q0 15 12 27t27 12h82v129q0 89 21 157t53.5 108t77.5 65t86.5 33.5t87.5 8.5q85 0 147.5 -29t85.5 -55q20 -27 -2 -53l-18 -16q-9 -11 -24.5 -11.5t-26.5 9.5q-7 6 -20.5 15.5t-55.5 25.5t-86 16 q-79 0 -131.5 -41t-73 -100.5t-20.5 -132.5v-129h284q15 0 27 -12t12 -27v-23q0 -15 -12 -27t-27 -12h-284v-258h284q15 0 27 -12t12 -27v-22q0 -17 -11.5 -28t-27.5 -11h-284v-45q0 -120 56 -197.5t169 -77.5q58 0 101 22t63 48q10 15 27.5 15.5t29.5 -11.5q6 -2 12 -6 l-22 6q1 0 3 -2t3 -2q27 0 37.5 -20.5t-6.5 -40.5q-3 -4 -10 -11.5t-30 -26.5t-49.5 -33t-69.5 -26t-89 -12t-87.5 8.5t-86.5 34t-77.5 65.5t-53.5 109t-21 158v45h-82q-16 0 -27.5 11t-11.5 28z" />
<glyph unicode="&#x2122;" horiz-adv-x="1789" />
<glyph unicode="&#x25fc;" horiz-adv-x="1382" d="M0 0v1382h1382v-1382h-1382z" />
<glyph unicode="&#xfb01;" horiz-adv-x="684" d="M10 39v1290q0 15 12 27t27 12h457q15 0 27 -12t12 -27v-1290q0 -17 -11.5 -28t-27.5 -11h-23q-16 0 -27.5 11t-11.5 28v1231h-335v-537h221q15 0 26 -11t11 -26v-22q0 -15 -11 -27t-26 -12h-221v-596q0 -17 -11.5 -28t-27.5 -11h-21q-16 0 -27.5 11t-11.5 28z" />
<glyph unicode="&#xfb02;" horiz-adv-x="1093" d="M14 39v1290q0 15 12 27t27 12h453q15 0 27 -12t12 -27v-1233h368q15 0 27 -11t12 -26v-20q0 -17 -11.5 -28t-27.5 -11h-430q-15 0 -26 11t-11 28v1231h-333v-537h221q15 0 26 -11t11 -26v-22q0 -15 -11 -27t-26 -12h-221v-596q0 -17 -11.5 -28t-27.5 -11h-21 q-16 0 -27.5 11t-11.5 28z" />
</font>
</defs>
</svg>
